<?xml version="1.0" encoding="UTF-8"?>
<!DOCTYPE svg PUBLIC "-//W3C//DTD SVG 1.1//EN" "http://www.w3.org/Graphics/SVG/1.1/DTD/svg11.dtd">
<!-- Creator: CorelDRAW -->
<svg xmlns="http://www.w3.org/2000/svg" xml:space="preserve" width="5in" height="5in" version="1.1" style="shape-rendering:geometricPrecision; text-rendering:geometricPrecision; image-rendering:optimizeQuality; fill-rule:evenodd; clip-rule:evenodd"
viewBox="0 0 5000 5000"
 xmlns:xlink="http://www.w3.org/1999/xlink"
 xmlns:xodm="http://www.corel.com/coreldraw/odm/2003">
 <defs>
  <style type="text/css">
   <![CDATA[
    .fil1 {fill:#73BF0A}
    .fil0 {fill:#CF0000}
    .fil2 {fill:#E6340C}
    .fil3 {fill:#F59300}
    .fil4 {fill:#1C0000;fill-rule:nonzero}
   ]]>
  </style>
 </defs>
 <g id="Layer_x0020_1">
  <metadata id="CorelCorpID_0Corel-Layer"/>
  <path class="fil0" d="M1886 1723.05c29.02,9.05 70.29,50.03 80.07,73.74 3.86,9.95 4.07,4.52 6.96,10.22 3.32,6.56 -0.79,5.98 5.3,11.85 9.8,9.45 -2.36,2.41 12.48,20.72 6.59,8.13 8.47,27.46 15.52,36.64 4.19,5.45 1.91,4.01 4.75,10.85l28.44 39.73 48.02 37.42c5.87,3.79 1.48,4.72 9.9,7.07 8.04,2.25 6.15,0.67 12.6,5 6.69,4.49 9.95,2.24 23.93,9.29 8.04,4.06 18.96,3.32 27.93,6.76 24.64,9.46 41.11,4.64 73.26,10.61l46.91 5.69c6.02,1.28 9.44,4.71 26.15,8.22 11.97,2.51 11.44,7.4 25.83,9.39 2.35,13.23 9.52,-1.15 11.74,16.24 13.68,0.48 4.06,1.33 11.15,7.57 9.17,8.07 1.06,-2.31 7.89,11.32 3.86,7.7 4.8,2.2 6.41,12.53 2.28,14.58 3.37,46.42 -3.5,57.82 -8.45,14.04 -1.28,15.98 -9.25,21.55 -4.99,3.49 -3.69,3.25 -4.32,8.93 -1.98,17.87 -2.33,0.13 -9.07,20.44 -1.3,3.93 -15.32,20.6 -17.39,28.68 -1.35,5.29 -14.51,27.57 -18.01,38.65 -3.33,10.54 -4.28,3.78 -7.06,11.38 -2.17,5.9 -0.57,11.24 -4.45,16.4 -9.87,13.09 -1.82,21.54 -11.3,43.29 -5.55,12.74 -4.17,73.78 -3.33,89.76 1.8,34.43 5.63,12.87 9.53,46.28 1.14,9.79 2.25,7.25 5.27,13.32 4.06,8.16 1.21,17.81 6,22.41 10.65,10.23 1.76,8.09 9.22,18.62 9.07,12.82 34.52,58.07 44.3,68.52l24.51 30.23c14.2,15.11 102.03,94.76 122.74,103.29 10.3,5.66 19.36,15.65 45.5,27.8 9.39,3.78 0.82,4.07 10.9,7.66l51.47 23.73c4.54,2.77 9.98,2.41 14.42,4.67 5.68,2.88 2.77,4.39 11.99,6.36 5.6,1.2 10.25,1.19 15.01,4.09 12.06,7.36 21.8,4.46 31.11,8.32l59.39 13.73 0 1.51c17.99,1.68 31.51,5.27 47.61,6.7 42.19,3.74 113.94,3.28 149.45,-7.27 8,-2.38 10.13,0.38 22.28,-5.08 9.26,-4.16 24.8,0.65 43.94,-8.26 9.42,-4.38 10.18,-2.61 20.67,-5.24l25.13 -9.71c6.15,-2.67 8.74,-6.22 11.24,-6.92 5.07,-1.4 5.82,0.42 11.57,-1.9 2.34,-0.95 5.42,-3.8 7.87,-5.1 8.69,-4.61 14.93,0.99 17.17,-10.57 10.74,-1.41 13.44,-6.86 23.1,-8.99 19.33,-4.26 11.22,-7.65 23.18,-9.93 9.2,-1.74 93.06,-39.6 98.69,-8.28 3.37,18.76 -4.44,17.31 -7.15,24.7 -2.92,7.96 0.84,4.2 -5.4,10.48 -4.36,4.4 -3.28,3.31 -4.85,9.17 -9.48,4.9 -7.16,7.71 -11.53,13.69l-54.08 68.57c-3.28,3.46 -2.36,0.15 -6.1,5.38 -11.72,16.35 -24.95,26.73 -31.77,34.89 -17.03,20.37 -25.82,24.56 -46.14,43.34 -5.86,5.76 1.48,1.51 -5.48,5.83 -14.03,8.72 -8.6,10.37 -21.6,11.67 -2.58,12.05 0.39,3.61 -6.92,9.31 -4.65,3.63 -4.43,5.19 -9.29,7.97l-50.04 35.33c-7.36,3.38 -3.01,3.64 -9.07,6.8l-21.98 12.66c-6.31,5.14 0.73,3.05 -9.61,7.05l-64.48 35.01 -25.22 10.09c-5.55,2.51 -4.38,3.77 -10.22,5.62 -5.05,1.6 -9.09,1.66 -13.55,4.08 -5.53,3 -3.34,3.9 -12.28,5.44 -24.67,4.27 -14.8,6.11 -24.61,8.77 -5.47,1.48 -9.56,0.56 -14.24,2.9 -5.13,2.57 -5.98,5.11 -11.72,6.02 -29.22,4.63 -13.89,3.96 -24.94,7.86 -12.43,4.38 -11.51,-0.99 -26.21,6.89l-81.5 18.73c-78.63,11.58 -108.63,11.92 -192.5,9.45 -6.41,-0.19 -93.93,-8.16 -99.96,-10.68l-46.77 -12.1c-26.83,-4.85 -16.28,-4.96 -24.15,-8.45 -6.5,-2.88 -22.85,-1.5 -29.24,-4.5 -5.81,-2.72 -1.65,-5.51 -25.7,-7.94 -1.22,-10.22 -3.83,-7.71 -14.06,-7.96 -11.94,-0.29 -9.62,-2.77 -16.31,-5.78 -5.12,-2.3 -13,-2.07 -19.25,-4.11 -8.05,-2.63 -2.63,-4.15 -14.72,-7.01 -12.13,-2.87 -5.2,-6.01 -14.31,-8.32 -24.32,-6.17 -7.04,-6.7 -23,-10.19 -13.75,-4.48 -7.55,-8.3 -24.54,-9.55 -0.87,-2.09 -1.78,-5.05 -2.87,-6.87 -15.24,-0.73 -10.43,0.99 -16.26,-8.33 -18.03,-0.65 -14.31,-5.92 -17.67,-8.2 -0.39,-0.26 -27.97,-11.18 -42.26,-23.07 -11.9,-9.91 -55.48,-35.44 -60.75,-43.74l-35.83 -28.65c-4.61,-5.7 -2.78,-2.09 -7.17,-5.89l-52.85 -51.11c-7.02,-5.89 -11.37,-15.76 -20.7,-18.33l-31.65 -37.82 -14.36 -20.34c-3.44,-3.55 -2.75,-0.61 -6.12,-5.44l-37.76 -56.26c-2.57,-3.38 -2.85,-1.65 -5.47,-5.91 -4.18,-6.78 0.77,-3.35 -8.01,-15.19l-42.15 -79.23c-2.39,-2.17 -0.66,-1.16 -3.52,-1.96 1.11,-7.06 -2.31,-15.83 -5.62,-20.7 -4.94,-7.28 -3.25,-12.83 -7.27,-18.83 -5.78,-8.61 -3.77,-9.09 -7.04,-18.91 -2.84,-8.52 -5.02,-8.76 -7.7,-19.76 -4.02,-16.45 -5.19,-9.54 -7.01,-19.17 -1.4,-7.41 -1.79,-16.61 -5.79,-21.56 -5.19,-6.41 -4,-10.54 -6.21,-19.46 -2.05,-8.29 -4.57,-13.31 -6.19,-21.38 -1.47,-7.35 -1.97,-15.06 -3.56,-22.72 -1.99,-9.59 -3.05,1.55 -5.78,-21.5 -2.16,-18.22 -7.74,-34.19 -8.69,-44.13 -11.61,-121.35 -11.14,-155.5 4.03,-272.81 1.47,-10.05 3.46,-11.67 4.85,-22.02 2.61,-19.54 1.72,-9.16 5.12,-20.87 2.14,-7.35 2.59,-14.35 4.55,-22.75 2.03,-8.68 4.62,-7.26 6.43,-19.3 1.21,-8.06 1.61,-15.39 5.47,-22.24 5.08,-9 3.11,-9.42 5.58,-20.59l21.38 -61.01c3.36,-0.27 0.26,-12.15 5.77,-18.6 4.42,-5.16 2.02,-0.1 4.56,-8.47 5.45,-18.04 3.57,1.08 10.78,-25.52 1.98,-7.31 6.64,-8.18 7.28,-15.96 14.55,-6.44 22.63,-38.71 34.62,-54.66l11.28 -19.66 22.17 -27.65c17.48,-15.96 4.36,-11.74 25.08,-25.4 5.12,-3.38 14.61,-12.02 20.3,-14.18 5.43,-2.04 10.16,-1.85 14.57,-3.54 12.58,-4.81 8.76,-6.04 27.74,-5.97 27.79,0.1 16.98,3.24 28.35,6.78zm250.15 961.54c14.88,13.62 28.11,33.76 43.55,45.75 9.17,7.48 7.31,4.54 11.24,7.74 7.83,6.39 18.81,18.19 30.42,24.62l29.13 21.3c24.93,19.72 42.13,24.46 64.15,38.45 5.5,3.91 3.98,1.51 10.75,3.65 5.59,1.76 3.28,3.82 18.18,9.14 13.26,4.73 -2.12,3.57 19.63,8.01l39.86 16.55c3.84,1.13 6.91,1.3 10.61,2.41 5.65,1.7 4.96,3.18 9.46,4.95 6.53,2.57 15.37,2.44 22.61,4.98 8.44,2.96 9.39,5.41 20.43,6.75 19.98,2.43 10.6,4.61 21.51,7.22 8.34,2 16.12,0.67 23.86,3.87 17.17,7.1 64.7,8.81 76.9,5.57 1.75,-0.47 12.38,-7.65 13.3,-13.55 2.63,-16.88 -17.47,-31.58 -30.89,-37.94 -6.01,-2.85 -6.17,-5.04 -8.19,-6.24 -2.4,-1.41 -7.17,-1.38 -10.85,-2.35 -6.05,-1.58 -4.93,-2.55 -9.79,-4.77 -7.17,-3.27 -14.94,-2.22 -21.55,-5.98 -6.42,-3.66 -1.14,-2.8 -8.35,-4.55l-26.71 -9.37c-5.59,-3.15 -2.13,-0.3 -3.89,-3.86 -8.26,3.71 -7.7,-0.34 -15.85,-3.56 -4.91,-1.94 -8.44,-1.56 -12.97,-4.71 -4.58,-3.19 -2.99,-4 -9.89,-5.38 -11.42,-2.3 -6.09,-2.33 -11.79,-6.16 -4.92,-3.31 -5.93,-0.35 -11.15,-5.02 -5.18,-4.64 -2.06,-4.33 -9.22,-7.37l-46.98 -30.26c-8.46,-7.81 0.21,3.17 -12.1,-9.47l-34.87 -29.23c-4.5,-2.45 -2.5,0.92 -5.69,-2.54l-11.96 -14.21c-5.96,-4.93 -0.41,3.59 -5.89,-3.89 -2.72,-3.7 1.22,-2.34 -5.57,-7.77l-25.52 -33.85c-4.69,-3.14 -1.09,2.24 -4.49,-3.65 -8.39,-14.54 -3.52,-2.15 -7.87,-10.95 -5.94,-12.02 1.58,-5.46 -6.87,-12.27 -5.67,-4.57 -13.28,-24.67 -16.55,-28.13 -6.96,-7.39 -2.26,-4.02 -6.17,-12.61 -2.84,-6.27 -4.13,-1.46 -6.87,-10.38 -4.57,-14.87 -1.04,-6.12 -6.19,-12.7 -4.47,-5.71 -2.33,-7.21 -4.7,-14.11 -2.31,-6.74 -4.45,-3.8 -6.54,-12.35 -5.49,-22.5 -7.23,-16.11 -9.17,-27.29 -2.39,-13.84 -6.33,-14.57 -8.73,-27.21 -0.85,-4.49 -0.87,-10.85 -2.08,-15.52 -2.1,-8.11 -5.18,-7.01 -7.78,-29.35 -0.93,-8.01 -0.95,-8.71 -4.38,-14.4 -6.76,-11.2 -0.7,-15.92 -9.3,-26.79 -5.31,-6.71 -1.8,-7.61 -4.95,-14.04 -2.66,-5.43 -4.76,-2.32 -7.76,-10.78 -5.44,-15.33 -15.41,-17.96 -16.79,-19.36 -6.09,-6.2 5.42,2.06 -9.6,-9.35 -3.97,-3.02 -3.28,-4.61 -10.6,-7.96 -29.45,-13.51 -30.92,-7.43 -47.8,-0.31 -12.84,5.42 -5.09,1.29 -11.17,7.51 -9.02,9.24 -18.4,11.31 -25.08,39.78 -2.99,12.75 -5.99,7.61 -6.56,29.41 -0.28,10.67 -0.68,26.14 2.31,35.14 6.67,20.04 2.46,14.17 6.42,30.03 2.62,10.51 4.39,4.45 9.06,28.63 1.04,5.41 3.04,7.92 5.06,11.92 2.89,5.71 2.06,8.84 4.24,14.67 1.76,4.71 3.48,5 5.96,11.29l28.73 63.85c3.04,5.47 4.49,4.57 7.17,10.02l32.29 49.81c5.19,5.73 19.38,21.67 20.85,28.52z"/>
  <path class="fil1" d="M2329.35 1729.4c-0.79,-7.83 -7.37,-8.59 -8.67,-15.12 -10.49,-1.2 -9.19,-5.87 -13.56,-10.29 -18.21,-18.39 -24.7,-13.37 -22.69,-32.83 4.51,-2.59 9.36,-3.31 14.4,-5.9 5.2,-2.67 4.38,-5.11 12.49,-6.02 37.13,-4.15 31.56,2 50.77,8.5 10.86,3.67 11.46,14.83 47.25,8.64 12.95,-2.23 1.26,-3.13 12.98,-6.93 11.17,-3.62 10.57,-1.66 21.7,-16.44 4.48,-6.49 5.17,-1.03 6.91,-12.42 1.55,-10.16 4.57,-43.46 -2.56,-53.41 -2.7,-3.76 -1.79,-0.26 -4.98,-4.99 -3.89,-5.78 1.2,-4.09 -7.3,-7.82 -4.98,-2.43 -1.34,-3.38 -6.48,-7.28 -31.78,-18.5 -52.82,-5.74 -76.38,-0.93 -9.59,1.96 -5.74,3.5 -12.47,6.49 -4.71,2.09 -10.46,2.92 -13.74,5.37 -5.26,3.94 -22.41,10.36 -30.8,18.26l-14.88 12.52c-8.74,6.49 0.87,3.78 -8.76,9.79 -9.2,5.75 -19.49,21.89 -25.82,30.86 -21.93,0.78 -26.98,-10.11 -45.63,-13.66 -19.11,-3.64 -16.15,-5.38 -23.91,-7.03 -21.29,-4.55 -91.47,-3.31 -109.41,3.72 -8.52,3.34 -14.19,3.8 -24.76,4.55 -5.93,2.06 -0.9,5.35 -9.26,6.67 -15.92,2.52 -11.55,3.85 -23.43,9.23 -6.8,3.07 -5.62,0.45 -6.13,9.81 -5.89,0.6 -4,-0.29 -7.45,2.27 -0.64,18.57 -1,12.09 6.01,22.5 13.9,17.71 15.76,13.76 19.44,17.98 3.81,4.36 -2.4,5.66 16.02,6.51 4.13,9.54 -3.68,4.07 8.09,9.89 5.24,2.59 4.02,3.77 10.69,6.38 7.74,3.03 6.12,1.91 12.69,6.4 14.79,10.09 24.57,3.17 22.31,31.43 -1.33,16.64 -2.54,49.32 5.32,64.02 6.88,12.88 0.85,21.75 34.56,37.36 18.07,8.36 59.81,-2.19 78.64,-7.3 11.8,-3.21 22.67,-16.58 33.47,-2.31l10.65 12.85c10.67,9.18 3.26,8.22 16.8,19.2 10.86,8.8 20.58,27.33 37.76,34.91 9.41,4.15 -1.18,2.31 8.87,7.86 8.58,4.73 15.77,10.63 26.5,7.78 5.11,-2.2 0.9,-0.52 4.46,-3.62 14.53,-12.7 13.41,-22.22 16.55,-42.2 5.49,-35.04 1.24,-31.72 -0.28,-62.02 -1.71,-34.22 -3.56,-29.78 -12.47,-54.94 -2.13,-6 -3.7,-5.2 -6.25,-10.64 -0.76,-1.61 -5.93,-24.15 -17.25,-31.96l-0.04 -5.7z"/>
  <path class="fil2" d="M3309.96 2211.83l-17.5 31.14c-3.25,7.7 -3.26,2.84 -6.54,9.13 -1.76,3.38 -2.89,8.69 -4.68,12.79l-61.82 101.56c-2.94,4.07 -5.4,3.22 -5.39,9.56 -0.37,9.24 -2.33,5.06 -6.41,11.61 -1.56,2.5 -1.6,3.87 -2.87,5.8 -29.2,38.23 -73.34,70.12 -106.51,102.09 -15.39,14.83 -17.52,14.48 -34.47,24.57 -5.43,3.24 -2.34,4.59 -9.48,7.38 -9.91,3.87 -2.93,-1.15 -11.45,6.58 -4.5,4.09 -7.36,1.8 -12.33,5.02 -5.33,3.44 0.14,4.05 -10.28,6.72 -10.55,2.7 -5.11,1.15 -11.66,5.95 -4.13,3.03 -7.34,2.51 -12.02,5.3 -15.36,9.15 -4.79,3.28 -17.24,7.25 -7.79,2.48 -3.48,4.9 -17.59,8.09 -15.35,3.47 -7.28,6.31 -25.82,9.13 -19.81,3.02 -5.14,5.35 -26.11,8.42 -21.4,3.14 -14.98,5.48 -25.71,7.84 -4.26,0.94 -10.77,1.06 -15.41,1.88 -16.09,2.84 5.61,6.16 -42.87,8.57 -22.11,1.1 0.7,7.27 -60.61,8.28 -29.26,0.48 -110.74,2.84 -132.35,-4.1 -11.67,-3.74 -15.47,-3.57 -30.57,-4.89 -13.99,-1.22 -13.61,-6.44 -25.65,-8.09 -30.87,-4.2 -15.83,-4.21 -26.28,-8.03 -5.18,-1.9 -8.65,-1.29 -13.66,-3.69 -5.34,-2.57 -3.03,-3.24 -10.85,-5.39 -24.52,-6.73 -7.28,-4.7 -24.87,-9.81 -8,-2.32 -4.89,-3.75 -10.3,-6.88 -13.06,-7.02 -27.13,-12.39 -38.55,-22.15 -1.74,-1.82 -1.28,-6.72 -16.63,-8 -0.59,-8.3 0.14,-4.85 -5.82,-8.63 -4.13,-2.62 -4.55,-4.12 -8.18,-5.93 -4.32,-2.15 -6.65,-1.54 -10.41,-4.37 -5.36,-4.04 -0.85,-4.27 -9.82,-5.23 0.99,21.69 7.45,11.43 18.65,33.63 4.42,8.78 1.24,1.81 6.17,7.13 3.9,4.2 0.45,2.94 4.82,6.91 14.05,12.78 3.2,9.09 13.89,10.53 0.95,10.15 3.92,7.35 17.99,22.47 5.89,6.33 4.57,1.7 8.79,6.92 9.56,11.82 -5.8,-3.05 3.41,4.17 2.28,1.79 3.09,0.93 5.09,3.27 3.76,4.42 -3.93,-0.58 7.82,8.3l30.65 24.41c11.93,4.57 3.24,1.87 9.09,6.63l19.95 11.94c6.77,3.65 0.33,-0.05 4.49,4.07 6.24,6.2 6.81,1.81 14.58,8.53 9.76,8.43 10.73,1.11 18.14,13.89 1.42,0.13 44.12,22.23 55.96,24.78 26.06,5.61 12.32,6.31 30.3,10.21 16.37,3.56 12.16,5.41 32.42,9.45l31.53 8.5c6.58,0.81 12.12,0.99 18.44,2.2 5.94,1.14 8.1,3.25 16.96,4.57 33.22,4.94 83.09,4.53 119.11,4.12 13.25,-0.15 25.74,-2.28 38.96,-2.68 27.29,-0.81 26.07,-4.13 34.99,-5.63 12.42,-2.09 24.92,-1.96 36.26,-5.84 10.5,-3.58 22.1,-4.26 33.16,-7.66l76.36 -27.73c6.18,-3.6 7.74,-5.22 17.34,-5.6 2.61,-3.88 34.52,-15.22 39.94,-24.81 3.66,-6.47 8.7,-9.2 13.98,-11.46l25.64 -18.46c6.65,-5.09 -0.16,-4.95 8.51,-8.37 17.65,-6.61 -3.73,-0.47 9.19,-8.27 22.06,-13.95 69.11,-66.76 82.8,-86.11l22.83 -38.48c3.24,-3.96 13.16,-28.36 15.25,-32.21 3.42,-6.3 3.23,-0.08 7.58,-16.41 0.87,-3.26 1.3,-5.64 3.12,-8.98 8.23,-15.09 3.35,-15.64 8.83,-27.38 7.15,-15.33 1.87,-17.28 7.44,-15.71 -1.46,-7.85 3.43,-12.85 5.36,-28.81 1.29,-10.61 1.94,-22.41 3.23,-32.06l4.38 -29.89 0 -68.01 -10.07 -57.5c-6.82,-12.09 -9.39,-14.09 -20.18,-13.33 -3.67,4.75 -0.23,2.91 -4.79,6.3 -10.47,7.8 -1.05,-6.15 -27.95,27.04 -5.6,7.19 -1.15,9.21 -11.66,11.97z"/>
  <path class="fil3" d="M3061.39 2399.97c34.26,-29.17 65.59,-54.5 97,-98.85 5.6,-7.9 5.13,-4.22 8.61,-10.2l33.13 -50.17c0.89,-13.54 5.33,-12.23 9.19,-21.11l35.71 -80.56c2.59,-15.05 9.65,-29.09 13.57,-43.56l13.79 -72.17c3.86,-71.68 2.12,-123.77 -23.74,-190.3 -1.42,-3.37 -2.07,-7.62 -3.14,-11.65l-16.42 -33.45c-2.64,-11.31 -2.05,-7.24 -7.28,-14.52 -2.78,-3.87 -2.02,-6.53 -4.18,-10.53 -2.72,-5.04 -2.99,-1.14 -5.95,-8.38 -7.15,-17.51 -59.93,-82.82 -73.43,-92.98 -4.71,-3.54 -5.43,-7.54 -9.27,-12.22 -5.68,-6.92 -23.06,-20.31 -30.67,-27.05 -8.6,-7.61 -16.5,-13.05 -28.65,-14.98 -26.41,-4.2 -16.02,40.66 -13.89,63.85 1.87,20.33 4.69,3.33 8.31,36.61 1.35,12.38 0,10.56 5.33,18.47 3.32,4.94 2.16,10.96 3.54,18.11 1.77,9.13 6.41,3.35 9.61,34.86 1.17,11.52 5.99,15.26 7.99,37.19 0.68,7.43 2.56,12.01 4.84,17.89 7.16,18.46 5.44,119.87 2.68,151.39 -0.76,8.72 -1.94,11.39 -4.36,18.26 -4.02,11.43 -2.93,26.6 -5.65,39.43 -1.48,6.99 -4.54,5.99 -5.72,16.2 -2.35,20.33 -22.74,73.36 -29.74,92.46 -1.33,3.57 -2.91,4.59 -4.32,7.1l-9.63 25.82c-2.37,17.01 -8.9,7.01 -10.19,24.99 -12.2,3.75 -5.85,7.59 -12.52,15.17 -6.06,6.88 -6.44,15.97 -15.73,27.68 -3.26,3.22 -1.71,-1.8 -6.51,5.01l-16.42 21.04c-2.29,3.52 -2.27,5.81 -3.78,7.98 -3.14,4.53 -2.36,0.3 -6.53,6.39 -21.74,28.52 -57.82,67.26 -84.72,91.7 -4.95,4.2 -3.96,6.36 -9.26,9.25l-20.06 16.51c-3.87,4.1 -6.49,1.34 -10.27,7.22 -3.89,6.04 -4.11,1.98 -10.46,6.51 -2.18,1.56 -2.78,3.08 -5.28,4.77l-63.04 35.8c-5.57,2.5 -25.59,10.12 -29.4,13.67 -5.91,5.5 -6.46,4.11 -15.54,5.46 -21.22,3.17 9.57,4.98 -33.38,9.58 -11.99,1.28 -5.51,3.93 -16.3,5.76 -12.11,2.05 -29.19,1.14 -40.02,3.51 -6.82,1.49 -5.69,4.19 -15.47,6 -6.89,1.27 -13.4,1.17 -20.05,2.52 5.17,14.85 31.41,12.89 44.24,13.92 17.72,1.43 31.14,5.79 50.57,6.17 50.65,0.99 59.94,-3.19 106.95,-8.47 3.8,-7.5 23.37,-6.26 38.49,-8.64 11.7,-1.84 10.25,-4.92 19.24,-6.77 22.28,-4.59 8.53,-1.12 19.93,-7.37 5.67,-3.1 14.69,-1.87 21.01,-5.1 3.18,-1.62 3.96,-3.27 8.2,-4.75 3.26,-1.13 8.31,-1.35 11.54,-3.02 5.78,-2.99 2.7,-4.17 6.75,-5.94 5.77,-2.54 8.89,0.88 15.1,-5.59 4.98,-5.19 9.02,-5 16.62,-5.4 1.24,-2.16 2.41,-5.17 3.52,-7.75 10.07,-0.54 20.89,-6.7 28.19,-12.21 8.24,-7.65 5.7,-2.55 13,-6.9l23.94 -16.5c7.14,-2.87 2.48,-0.76 5.93,-4.48 7.28,-7.86 18.49,-10.58 23.69,-17.2 4.23,-5.39 3.55,-4.75 10.73,-5.5z"/>
  <path class="fil1" d="M2489.14 1475.51l51.02 26.58c31.72,13.44 77.61,47.61 106.04,72.25l55.98 59.58c15.24,13.85 51.7,68.39 60.5,85.8l41.68 84.14c15.41,49.74 26.44,79.87 34.86,132.86 7.38,46.4 8.34,174.61 -2.77,217.33 -3.29,12.66 -11.02,57.13 -16.89,67.02 -7.43,12.51 -0.83,8.31 -8.91,21.35 -2.93,4.72 -1.25,3.2 -3.08,8.65 -1.94,5.8 -5.78,9.28 -7.59,12.35 -9.44,16.76 -20.59,43.88 -39.66,66.04 -17.23,16.74 -23.06,30.11 -27.74,35.85 -5.85,7.16 -5.44,4.13 -4.83,16.48 7.24,0.85 6.65,0.63 11.64,-2.47 10.96,-6.79 6.74,-0.33 18.19,-9.32 17.11,-13.43 46.32,-31.58 63.32,-52.13l44.56 -50.08c0.69,-10.44 -1.13,-5.78 4.77,-11.95 5.52,-5.78 3.49,-5.94 5.91,-12.61 12.22,-2.29 5.31,-4.39 10.5,-10.06 4.55,-4.98 6.33,-2.35 7.04,-14.69 13.17,-5.17 3.56,-6.83 12.6,-16.13 11.85,-14.93 12.96,-26.69 17.15,-30.47 5.62,-5.09 2.93,-3.52 5.86,-11.69 3.17,-8.85 5.4,-5.2 7.74,-15.7 4.84,-21.65 1.4,-7.79 6.85,-15.9 3.21,-4.77 2.19,-12.27 5.63,-17.61 4.09,-6.35 3.64,-2.22 6.69,-17.85 1.9,-9.78 4.48,-6.54 6.76,-16.06 7.62,-31.89 18.02,-67.24 19,-99.83 0.76,-25.44 9.92,-89.52 4.41,-110.1 -5.26,-19.63 -3.28,-54.39 -7.48,-64.73l-8.11 -39.17c-1.12,-12.16 -3.85,-9.04 -5.87,-17.34 -1.52,-6.22 -1.71,-13.35 -3.49,-19.92l-25.57 -70.19c-23.63,-43.36 -34.4,-62.77 -62.57,-102 -0.91,-1.24 -4.3,-3.72 -5.85,-5.49 -2.86,-3.28 -1.94,-3.75 -4.63,-7.11 -14.37,-15.87 -67.82,-65.86 -86.57,-78.03l-92.76 -48.57c-3.89,-0.83 -6.47,-0.83 -9.63,-2.35 -6.38,-3.06 -0.62,-2.65 -8.42,-4.44 -5.42,-1.25 -14.57,-2 -19.56,-3.81 -2.87,-1.04 -4.09,-2.93 -7.09,-4.11 -7.69,-3.02 -25.39,-2.33 -31.5,-5.03 -7.12,-3.14 1.09,-2.23 -7,-3.81 -22.73,-4.46 -143.63,-10.6 -165.13,0.5 -4.85,2.5 -10.02,5.74 -14.31,8.92 -0.87,5.77 -1.47,11.18 1.11,15.39 10.65,16.74 29.78,32.47 46.89,42.2 4.24,2.41 6.69,5.38 9.89,7.39 8.34,5.24 6.46,-0.25 10.41,10.09z"/>
  <path class="fil4" d="M1472.69 3541.09c-20.72,13.97 -43.48,20.95 -68.26,20.95 -13.07,0 -27.25,-2.03 -42.57,-6.08 -9.23,-2.26 -18.13,-5.52 -26.69,-9.8 -15.77,-8.11 -28.33,-17.74 -37.68,-28.89 -9.35,-11.15 -16.72,-25.62 -22.13,-43.42 -4.28,-13.06 -6.42,-27.25 -6.42,-42.57 0,-10.13 1.24,-20.72 3.72,-31.76 3.83,-16.67 8.79,-30.24 14.87,-40.71 6.08,-10.48 14.87,-20.33 26.35,-29.57 14.19,-11.94 30.07,-19.82 47.64,-23.65 11.04,-2.48 20.61,-3.72 28.72,-3.72 11.48,0 23.03,2.2 34.63,6.59 11.6,4.39 27.42,12.33 47.47,23.82 1.13,0.68 2.87,1.47 5.24,2.37 2.36,0.9 5.01,1.64 7.94,2.2 2.93,0.56 6.08,0.85 9.46,0.85 2.03,0 3.6,-0.11 4.73,-0.34l1.69 5.41c2.25,6.76 3.38,13.96 3.38,21.62 0,7.66 -1.35,16.56 -4.06,26.69 -2.02,6.31 -4.17,11.49 -6.42,15.55 -14.19,25.45 -35.36,38.18 -63.52,38.18 -2.93,0 -5.86,0 -8.79,0 -2.93,-0.68 -5.07,-1.13 -6.42,-1.35 -15.76,-2.7 -28.5,-9.23 -38.18,-19.59 -9.68,-10.36 -14.53,-21.51 -14.53,-33.45 0,-4.96 1.02,-9.69 3.04,-14.19 2.02,-4.51 4.33,-8 6.93,-10.48 2.59,-2.48 5.46,-4.11 8.62,-4.9 3.15,-0.79 5.85,-1.18 8.11,-1.18 4.06,0 7.77,1.12 11.15,3.38 5.4,3.83 8.11,8.67 8.11,14.53 0,6.76 -1.41,11.77 -4.22,15.04 -2.81,3.27 -8.06,6.14 -15.71,8.62l-4.39 1.01c2.48,11.04 10.14,16.56 22.98,16.56 9.01,0 16.61,-3.66 22.81,-10.98 6.19,-7.32 9.29,-17.29 9.29,-29.9 0,-5.41 -0.67,-11.38 -2.03,-17.91 -3.38,-14.42 -11.15,-25.23 -23.31,-32.44 -7.88,-4.73 -16.44,-7.09 -25.68,-7.09 -6.76,0 -14.08,1.35 -21.96,4.05 -10.81,3.83 -19.6,11.83 -26.35,24 -7.43,13.28 -11.15,29.51 -11.15,48.65 0,7.89 0.67,16.45 2.03,25.68 3.83,23.65 12,42.96 24.49,57.94 12.5,14.98 29,25.4 49.51,31.26 9.46,2.93 19.03,4.39 28.71,4.39 20.05,0 44.83,-8.67 74.34,-26.02l5.74 -3.72c-5.63,21.18 -19.37,39.31 -41.22,54.4zm61.83 12.84c4.28,-4.5 7.37,-9.8 9.29,-15.88 1.92,-6.08 2.87,-14.08 2.87,-23.99l0 -175.02c0,-11.71 -3.94,-19.6 -11.83,-23.65 18.02,0 35.59,-3.27 52.71,-9.8l15.2 -7.1 0 225.71c0,13.29 4.06,23.2 12.17,29.73l-80.41 0zm205.09 0l-1.35 -9.8c-2.25,1.35 -4.22,2.59 -5.91,3.72 -1.69,1.13 -4.23,2.37 -7.61,3.72 -12.17,4.95 -23.65,7.43 -34.46,7.43 -12.84,0 -23.82,-3.55 -32.94,-10.64 -9.13,-7.09 -15.26,-16.83 -18.42,-29.23 -1.35,-5.18 -2.03,-10.13 -2.03,-14.87 0,-9.23 2.59,-18.36 7.77,-27.37 2.7,-4.96 6.65,-9.97 11.83,-15.04 5.18,-5.07 11.71,-10.08 19.59,-15.04 5.18,-3.15 10.76,-5.91 16.73,-8.28 5.97,-2.37 13.91,-4.9 23.82,-7.6l7.43 -2.03 -1.35 -8.79c-2.03,-11.04 -9.91,-16.56 -23.65,-16.56 -6.08,0 -12.67,1.19 -19.77,3.55 -7.09,2.37 -15.04,6.37 -23.82,12l-6.08 3.72c0.9,-7.21 3.26,-13.74 7.09,-19.6 3.83,-5.86 9.91,-11.71 18.25,-17.57 3.38,-2.26 7.09,-4.22 11.15,-5.91 4.05,-1.69 8.9,-3.21 14.53,-4.56 9.24,-2.03 17.57,-3.04 25,-3.04 16.44,0 29.28,4.73 38.52,14.19 9.24,9.46 14.98,23.31 17.23,41.56l12.17 104.07c0.45,3.61 1.86,7.44 4.22,11.49 2.37,4.05 5.46,7.54 9.3,10.47l-67.24 0zm-13.96 -112.85c-5.86,3.6 -10.7,7.66 -14.47,12.16 -3.72,4.51 -7.27,10.59 -10.53,18.25 -3.32,7.66 -4.95,14.64 -4.95,20.95 0,1.35 0,2.7 0,4.05 0,1.8 0,3.04 0,3.72 0,10.59 2.31,19.26 6.93,26.02 4.61,6.76 10.75,10.13 18.42,10.13 6.53,0 11.71,-2.7 15.54,-8.11l-10.93 -87.17zm129.86 -83.46c-9.46,0 -17.4,-2.65 -23.82,-7.94 -6.42,-5.29 -9.63,-11.99 -9.63,-20.1 0,-9.01 2.81,-16.44 8.45,-22.3 5.63,-5.86 13.52,-8.79 23.65,-8.79 10.59,0 18.64,2.65 24.16,7.94 5.52,5.3 8.28,12.78 8.28,22.47 0,8.11 -2.87,14.93 -8.61,20.44 -5.74,5.52 -13.24,8.28 -22.47,8.28zm-38.85 196.31l5.4 -5.74c4.5,-6.54 6.76,-13.18 6.76,-19.94l0 -118.6c0,-9.46 -3.94,-16.56 -11.83,-21.28 11.71,0 23.26,-1.47 34.63,-4.39 11.38,-2.93 22.36,-7.1 32.94,-12.5l0 157.11c0,3.83 1.58,8.79 4.73,14.87 2.48,4.28 3.72,6.53 3.72,6.76 1.13,1.35 2.37,2.59 3.72,3.72l-80.07 0zm201.38 -123.94c-6.98,-2.82 -12.39,-6.37 -16.22,-10.53 -8.56,-1.57 -14.54,1.46 -17.91,9.12l0 104.41c0,6.08 2.7,11.72 8.11,16.9 1.35,1.57 3.04,2.93 5.07,4.05l-81.09 0 4.73 -5.07c4.73,-6.54 7.09,-12.56 7.09,-17.96l0 -115.11c0,-5.85 -1.8,-11.32 -5.41,-16.28l-6.42 -6.76 16.55 -5.02 16.9 -5.35 17.23 -5.35 17.23 -5.69 0 31.87 5.07 -7.09c6.53,-8.33 12.11,-14.02 16.72,-17.06 4.62,-3.04 8.79,-4.84 12.5,-5.41 3.72,-0.56 6.7,-0.84 8.96,-0.84 9.23,0 16.61,2.98 22.13,8.95 5.52,5.97 8.28,13.91 8.28,23.82 0,8.79 -2.26,15.6 -6.76,20.44 -4.5,4.85 -10.47,7.27 -17.91,7.27 -5.18,0 -10.13,-1.13 -14.87,-3.32zm207.8 106.94c-3.61,4.22 -7.94,7.83 -13.01,10.87 -5.07,2.99 -12.28,5.8 -21.63,8.39 -9.35,2.54 -18.3,3.83 -26.86,3.83 -8.56,0 -17.91,-1.35 -28.05,-4.05 -13.07,-3.61 -24.22,-9.01 -33.45,-16.17 -9.24,-7.2 -16.22,-14.87 -20.95,-22.98 -4.73,-8.05 -8.22,-18.64 -10.48,-31.7 -1.13,-7.15 -1.69,-13.46 -1.69,-18.87 0,-8.11 1.13,-16.61 3.38,-25.62 3.61,-13.29 8.96,-24.61 16.05,-34.07 7.1,-9.46 15.83,-16.84 26.19,-22.25 7.88,-4.28 15.43,-6.93 22.64,-7.94 7.21,-1.01 13.06,-1.52 17.57,-1.52 10.81,0 22.75,3.49 35.81,10.48 6.98,3.83 13.29,9.57 18.92,17.23 5.63,7.66 9.91,16.67 12.84,27.03 2.03,6.54 3.04,13.29 3.04,20.28 0,4.73 -0.56,9.91 -1.69,15.54l-97.99 0 3.38 11.77c5.85,15.65 15.37,28.16 28.55,37.45 13.18,9.3 27.98,13.96 44.43,13.96 7.88,0 15.54,-1.07 22.97,-3.21l9.13 -2.87c-2.26,5.12 -5.3,9.91 -9.13,14.42zm-60.48 -110.04c-2.48,-13.29 -8.22,-22.41 -17.23,-27.37 -1.35,-0.9 -2.98,-1.57 -4.9,-2.03 -1.91,-0.45 -3.55,-0.67 -4.9,-0.67 -8.56,0 -14.19,4.5 -16.89,13.51 -1.58,4.96 -2.37,10.81 -2.37,17.57 0,1.8 0.23,5.41 0.68,10.81l1.01 7.77 45.62 0 0.33 -6.76c0,-4.96 -0.45,-9.24 -1.35,-12.84zm280.71 127.39c-3.15,0.9 -6.19,1.57 -9.12,2.02 -2.93,0.45 -6.87,0.67 -11.83,0.67 -8.78,0 -20.38,-1.12 -34.8,-3.38 -2.02,-0.22 -4.05,-0.22 -6.08,0 -2.03,0.22 -5.52,1.02 -10.48,2.37 -2.7,0.67 -5.07,1.41 -7.09,2.19 -2.03,0.79 -4.73,1.97 -8.11,3.55l-7.77 -11.49c-7.66,-11.04 -16,-22.07 -25,-33.11 6.53,-3.6 13.29,-5.4 20.27,-5.4 7.66,0 16.5,2.08 26.52,6.25 10.02,4.17 21.57,10.76 34.63,19.77 2.25,1.57 5.01,2.7 8.28,3.38 3.27,0.68 6.81,1.02 10.65,1.02 4.05,0 7.83,-0.51 11.32,-1.52 3.49,-1.01 6.25,-2.54 8.28,-4.56 4.51,-4.96 6.76,-9.85 6.76,-14.59 0,-6.08 -3.49,-11.94 -10.47,-17.57 -2.03,-1.58 -3.94,-2.82 -5.75,-3.72 -1.8,-0.9 -6.19,-2.53 -13.17,-4.79l-54.74 -18.25 -9.8 -4.39c-9.24,-5.01 -16.17,-11.37 -20.78,-19.15 -4.62,-7.78 -6.93,-16.56 -6.93,-26.24 0,-9.24 1.86,-17.18 5.57,-23.71 3.72,-6.53 9.74,-13.06 18.07,-19.65 5.19,-4.06 10.59,-6.93 16.22,-8.62 5.63,-1.69 12.84,-2.53 21.63,-2.53 6.08,0 12.33,0.33 18.75,1.07 6.42,0.73 14.59,2.08 24.5,4 1.8,0.22 3.94,-0.06 6.42,-0.79 3.83,-1.8 7.09,-3.27 9.8,-4.28 7.21,13.96 15.55,27.93 25.01,41.89 -5.86,1.57 -10.93,2.37 -15.21,2.37 -6.08,0 -12.72,-1.35 -19.93,-4 -4.28,-1.57 -7.94,-3.21 -10.98,-4.84 -3.04,-1.69 -9.18,-5.52 -18.42,-11.55 -4.28,-2.87 -8.73,-5.07 -13.35,-6.48 -4.61,-1.46 -8.39,-2.2 -11.32,-2.2 -4.28,0.23 -7.89,2.03 -10.81,5.41 -2.93,3.38 -4.39,7.09 -4.39,11.2 0,2.03 0.33,3.94 1.02,5.74 1.8,4.28 6.3,8.78 13.51,13.52 0.68,0.45 2.37,1.24 5.07,2.37 2.7,1.13 7.77,2.81 15.21,5.07l45.28 13.23c2.03,0.45 4.84,1.58 8.45,3.38 20.95,10.65 31.42,26.07 31.42,46.41 0,10.36 -3.15,21.06 -9.46,32.16 -7.88,13.51 -20.16,22.8 -36.83,27.76zm307.14 -7.44c-7.89,2.48 -16.5,4.28 -25.85,5.41 -9.35,1.13 -22.13,1.69 -38.35,1.69l-86.5 0 6.42 -8.11c5.63,-9.23 8.45,-18.36 8.45,-27.37l0 -173.67 -3.72 2.7 -3.71 2.36 -4.39 3.04 -4.06 3.38 -6.42 -16.56 7.43 -6.76c9.24,-8.11 18.53,-14.36 27.88,-18.75 9.35,-4.39 20.78,-7.94 34.3,-10.65 7.66,-1.57 16.56,-2.36 26.69,-2.36 8.11,0 17.8,0.67 29.06,2.03 18.25,2.7 34.35,7.43 48.32,14.19 21.17,10.36 37.67,23.65 49.5,39.87 11.82,16.22 19.09,35.81 21.79,58.8l0 24.66c-2.7,27.26 -11.09,49.5 -25.17,66.73 -14.08,17.24 -34.63,30.36 -61.67,39.37zm0.33 -190.23c-5.4,-7.43 -10.98,-13.63 -16.72,-18.58 -5.75,-4.96 -11.55,-8.79 -17.4,-11.49 -10.59,-4.73 -19.71,-7.1 -27.37,-7.1 -1.8,0 -3.89,0.17 -6.25,0.51 -2.37,0.34 -4.9,0.96 -7.6,1.86l0 214.89 9.8 0c19.59,-1.8 36.49,-9.24 50.68,-22.3 12.39,-11.27 20.95,-24.39 25.68,-39.37 4.73,-14.98 7.09,-35.42 7.09,-61.33 0,-12.61 -1.46,-23.2 -4.39,-31.76 -2.93,-8.56 -7.44,-17 -13.52,-25.34zm269.97 180.32c-3.6,4.22 -7.94,7.83 -13.01,10.87 -5.07,2.99 -12.28,5.8 -21.62,8.39 -9.35,2.54 -18.3,3.83 -26.86,3.83 -8.56,0 -17.91,-1.35 -28.05,-4.05 -13.06,-3.61 -24.21,-9.01 -33.45,-16.17 -9.24,-7.2 -16.22,-14.87 -20.95,-22.98 -4.73,-8.05 -8.22,-18.64 -10.47,-31.7 -1.13,-7.15 -1.69,-13.46 -1.69,-18.87 0,-8.11 1.13,-16.61 3.38,-25.62 3.6,-13.29 8.95,-24.61 16.05,-34.07 7.09,-9.46 15.82,-16.84 26.19,-22.25 7.89,-4.28 15.43,-6.93 22.64,-7.94 7.21,-1.01 13.07,-1.52 17.57,-1.52 10.81,0 22.75,3.49 35.82,10.48 6.98,3.83 13.29,9.57 18.92,17.23 5.63,7.66 9.91,16.67 12.84,27.03 2.03,6.54 3.04,13.29 3.04,20.28 0,4.73 -0.57,9.91 -1.69,15.54l-97.99 0 3.38 11.77c5.86,15.65 15.37,28.16 28.55,37.45 13.18,9.3 27.98,13.96 44.43,13.96 7.88,0 15.54,-1.07 22.97,-3.21l9.13 -2.87c-2.26,5.12 -5.3,9.91 -9.13,14.42zm-60.48 -110.04c-2.48,-13.29 -8.22,-22.41 -17.23,-27.37 -1.35,-0.9 -2.99,-1.57 -4.9,-2.03 -1.92,-0.45 -3.55,-0.67 -4.9,-0.67 -8.56,0 -14.19,4.5 -16.9,13.51 -1.57,4.96 -2.37,10.81 -2.37,17.57 0,1.8 0.23,5.41 0.68,10.81l1.02 7.77 45.61 0 0.33 -6.76c0,-4.96 -0.45,-9.24 -1.35,-12.84zm86.5 127.04c4.28,-4.5 7.37,-9.8 9.29,-15.88 1.91,-6.08 2.87,-14.08 2.87,-23.99l0 -175.02c0,-11.71 -3.94,-19.6 -11.83,-23.65 18.02,0 35.59,-3.27 52.71,-9.8l15.21 -7.1 0 225.71c0,13.29 4.05,23.2 12.16,29.73l-80.41 0zm138.54 -196.31c-9.46,0 -17.4,-2.65 -23.82,-7.94 -6.42,-5.29 -9.63,-11.99 -9.63,-20.1 0,-9.01 2.81,-16.44 8.45,-22.3 5.63,-5.86 13.51,-8.79 23.65,-8.79 10.59,0 18.64,2.65 24.16,7.94 5.52,5.3 8.28,12.78 8.28,22.47 0,8.11 -2.87,14.93 -8.61,20.44 -5.74,5.52 -13.24,8.28 -22.47,8.28zm-38.86 196.31l5.41 -5.74c4.5,-6.54 6.76,-13.18 6.76,-19.94l0 -118.6c0,-9.46 -3.94,-16.56 -11.83,-21.28 11.72,0 23.26,-1.47 34.63,-4.39 11.38,-2.93 22.36,-7.1 32.94,-12.5l0 157.11c0,3.83 1.58,8.79 4.73,14.87 2.48,4.28 3.72,6.53 3.72,6.76 1.12,1.35 2.37,2.59 3.71,3.72l-80.07 0zm233.87 51.36c-7.38,2.7 -15.65,4.96 -24.78,6.76 -9.06,1.8 -18.58,2.7 -28.49,2.7 -31.93,0 -51.25,-1.35 -58,-4.05 -4.06,-1.58 -7.27,-3.1 -9.57,-4.56 -2.36,-1.46 -4.45,-3.1 -6.25,-4.9 -3.38,-3.38 -5.07,-7.32 -5.07,-11.83 0,-6.53 3.15,-11.26 9.46,-14.19 3.09,-1.35 6.25,-2.03 9.41,-2.03 2.25,0 4.79,0.23 7.6,0.68 2.76,0.45 7.27,2.53 13.46,6.25 6.2,3.72 13.29,8.28 21.4,13.68 1.8,1.13 3.66,1.97 5.52,2.54 1.91,0.57 5.01,0.84 9.29,0.84 2.48,0 5.07,-0.11 7.77,-0.33 2.65,-0.22 5.13,-0.68 7.38,-1.35 7.2,-2.48 12.84,-6.19 16.83,-11.15 4.06,-4.95 6.08,-10.13 6.08,-15.54 0,-2.7 -0.68,-5.07 -2.03,-7.1l-10.81 -14.53 -4.73 -6.42c-7.21,9.24 -16.33,14.87 -27.37,16.9 -3.15,0.67 -6.08,1.01 -8.78,1.01 -14.87,0 -27.82,-6.54 -38.85,-19.6 -11.94,-14.19 -19.04,-33.45 -21.29,-57.78 -0.22,-1.58 -0.33,-3.04 -0.33,-4.39 0,-1.57 0,-2.7 0,-3.38 0,-2.03 0.11,-4.33 0.33,-6.93 0.23,-2.59 0.34,-4.56 0.34,-5.92 1.58,-15.54 5.91,-29.73 13.01,-42.57 7.09,-12.84 15.6,-22.75 25.51,-29.73 7.88,-5.41 15.93,-9.19 24.16,-11.32 8.22,-2.14 18.19,-3.21 29.9,-3.21 7.21,0 21.18,2.59 41.9,7.77 0.67,0.23 1.91,0.34 3.72,0.34 1.13,0 2.37,0 3.72,0 2.48,-0.67 5.07,-1.24 7.77,-1.69 2.7,-0.45 5.97,-1.8 9.8,-4.05l-1.69 5.4c-0.22,0.68 -0.96,4.17 -2.19,10.48 -1.24,6.31 -1.86,10.36 -1.86,12.16l0 122.32 8.11 13.17c5.4,8.79 8.11,17.12 8.11,25.01 0,8.56 -3.15,16.22 -9.46,22.97 -6.25,6.76 -15.93,12.62 -29,17.57zm-33.84 -192.93c0,-2.03 -0.9,-4.96 -2.7,-8.79l-3.38 -4.73c-2.7,-3.38 -6.31,-5.07 -10.81,-5.07 -6.31,0 -11.15,3.16 -14.53,9.46 -2.03,3.38 -3.49,6.7 -4.39,9.97 -0.9,3.26 -1.74,7.83 -2.53,13.69 -0.79,5.86 -1.19,13.52 -1.19,22.98 0,21.85 1.46,37.84 4.39,47.98 2.93,10.13 7.21,17.45 12.84,21.96 3.38,2.26 6.42,3.38 9.12,3.38 4.73,0 8.33,-2.14 10.81,-6.42 1.13,-2.03 1.8,-4.73 2.03,-8.11 0.23,-3.38 0.34,-7.1 0.34,-11.15l0 -85.15zm180.43 141.57c5.63,-6.25 8.44,-14.92 8.44,-25.9l0 -108.91c0,-3.61 -1.52,-6.7 -4.56,-9.29 -3.04,-2.59 -6.81,-3.89 -11.32,-3.89 -1.57,0 -2.7,0.11 -3.38,0.34 -8.11,2.03 -12.17,6.31 -12.17,12.84l0 106.09c0,11.72 4.06,21.29 12.17,28.72l-80.07 0 4.39 -5.07c2.25,-3.16 4.06,-6.65 5.41,-10.47 1.35,-3.83 2.03,-7.1 2.03,-9.8l0 -193.94c0,-3.6 -1.01,-7.15 -3.04,-10.64 -2.02,-3.49 -4.73,-6.37 -8.11,-8.61 11.04,0 21.91,-1.47 32.61,-4.39 10.7,-2.99 22.24,-7.15 34.63,-12.62l0 94.05c3.83,-4.05 7.83,-7.21 12,-9.46 4.17,-2.26 9.52,-4.05 16.05,-5.41 6.54,-1.35 11.82,-2.03 15.88,-2.03 13.06,0 23.59,3.55 31.59,10.65 8,7.1 12,15.94 12,26.53l0 111.5c0,12.39 4.06,22.3 12.17,29.73l-76.7 0zm174.23 3.32c-3.6,1.57 -6.42,2.7 -8.44,3.26 -2.03,0.57 -4.22,0.85 -6.47,0.85 -1.58,0 -3.33,0 -5.24,0 -1.91,0 -3.32,0 -4.22,0 -23.99,0 -37.9,-11.26 -41.73,-33.79l0 -7.09 0 -117.25 -18.25 0c20.5,-15.31 38.97,-31.03 55.41,-47.02l18.58 -18.64 0 43.7 29.4 0 0 21.96 -29.4 0 0 115.22c0,9.46 5.52,14.19 16.56,14.19 2.48,0 5.07,-0.34 7.77,-1.02l8.78 -3.04 4.39 -2.36c-1.57,6.64 -4.51,12.5 -8.84,17.57 -4.28,5.07 -10.36,9.52 -18.3,13.46zm-1433.97 -159.76l-7.61 -45.11 0 -40.37 33.79 0 0 40.37 -7.94 45.11 -18.24 0z"/>
 </g>
</svg>
