<svg width="51" height="47" viewBox="0 0 51 47" fill="none" xmlns="http://www.w3.org/2000/svg">
<path fill-rule="evenodd" clip-rule="evenodd" d="M12.8514 7.49561C13.4492 7.68204 14.2994 8.52623 14.5009 9.01465C14.5804 9.21962 14.5847 9.10776 14.6442 9.22518C14.7126 9.36032 14.628 9.34837 14.7534 9.46929C14.9553 9.66396 14.7048 9.51894 15.0105 9.89612C15.1463 10.0636 15.185 10.4618 15.3302 10.6509C15.4165 10.7632 15.3696 10.7335 15.4281 10.8744L16.0139 11.6929L17.0031 12.4637C17.1241 12.5418 17.0336 12.5609 17.2071 12.6094C17.3727 12.6557 17.3338 12.6232 17.4666 12.7124C17.6045 12.8048 17.6716 12.7585 17.9596 12.9037C18.1252 12.9874 18.3502 12.9721 18.535 13.043C19.0425 13.2379 19.3818 13.1386 20.0441 13.2615L21.0105 13.3788C21.1345 13.4051 21.2049 13.4758 21.5491 13.5481C21.7957 13.5998 21.7848 13.7005 22.0812 13.7415C22.1297 14.0141 22.2774 13.7178 22.3231 14.0761C22.6049 14.086 22.4067 14.1035 22.5528 14.232C22.7417 14.3983 22.5746 14.1844 22.7153 14.4652C22.7948 14.6238 22.8142 14.5105 22.8474 14.7233C22.8943 15.0237 22.9168 15.6796 22.7753 15.9144C22.6012 16.2036 22.7489 16.2436 22.5847 16.3583C22.4819 16.4302 22.5087 16.4253 22.4957 16.5423C22.4549 16.9104 22.4477 16.545 22.3089 16.9634C22.2821 17.0443 21.9933 17.3877 21.9506 17.5542C21.9228 17.6632 21.6517 18.1221 21.5796 18.3504C21.511 18.5675 21.4915 18.4282 21.4342 18.5848C21.3895 18.7063 21.4225 18.8163 21.3425 18.9226C21.1392 19.1923 21.305 19.3664 21.1097 19.8144C20.9954 20.0769 21.0238 21.3343 21.0411 21.6635C21.0782 22.3727 21.1571 21.9286 21.2375 22.6168C21.261 22.8185 21.2838 22.7662 21.346 22.8912C21.4297 23.0593 21.371 23.2581 21.4696 23.3529C21.689 23.5636 21.5059 23.5195 21.6596 23.7364C21.8464 24.0005 22.3707 24.9327 22.5721 25.148L23.077 25.7707C23.3696 26.082 25.1789 27.7227 25.6055 27.8985C25.8177 28.0151 26.0043 28.2209 26.5428 28.4711C26.7362 28.549 26.5597 28.555 26.7673 28.6289L27.8276 29.1178C27.9211 29.1748 28.0332 29.1674 28.1247 29.214C28.2417 29.2733 28.1817 29.3044 28.3717 29.345C28.487 29.3697 28.5828 29.3695 28.6809 29.4293C28.9293 29.5809 29.1299 29.5211 29.3217 29.6006L30.5452 29.8835V29.9146C30.9158 29.9492 31.1943 30.0232 31.5259 30.0526C32.395 30.1297 33.8731 30.1202 34.6046 29.9028C34.7694 29.8538 34.8133 29.9107 35.0636 29.7982C35.2543 29.7125 35.5744 29.8116 35.9687 29.628C36.1628 29.5378 36.1784 29.5743 36.3945 29.5201L36.9122 29.3201C37.0389 29.2651 37.0923 29.1919 37.1438 29.1775C37.2482 29.1487 37.2636 29.1862 37.3821 29.1384C37.4303 29.1188 37.4937 29.0601 37.5442 29.0333C37.7232 28.9384 37.8518 29.0537 37.8979 28.8156C38.1192 28.7865 38.1748 28.6743 38.3738 28.6304C38.772 28.5426 38.6049 28.4728 38.8513 28.4258C39.0408 28.39 40.7683 27.6101 40.8843 28.2553C40.9537 28.6417 40.7928 28.6118 40.737 28.7641C40.6769 28.9281 40.7543 28.8506 40.6258 28.98C40.536 29.0706 40.5582 29.0482 40.5259 29.1689C40.3306 29.2698 40.3784 29.3277 40.2883 29.4509L39.1743 30.8634C39.1067 30.9347 39.1257 30.8665 39.0486 30.9743C38.8072 31.3111 38.5347 31.5249 38.3942 31.693C38.0434 32.1126 37.8623 32.1989 37.4437 32.5858C37.323 32.7044 37.4742 32.6169 37.3308 32.7059C37.0418 32.8855 37.1536 32.9195 36.8858 32.9463C36.8327 33.1945 36.8939 33.0207 36.7433 33.1381C36.6475 33.2129 36.652 33.245 36.5519 33.3023L35.5211 34.0301C35.3695 34.0997 35.4591 34.105 35.3342 34.1701L34.8815 34.4309C34.7515 34.5368 34.8965 34.4938 34.6835 34.5762L33.3552 35.2974L32.8357 35.5052C32.7214 35.5569 32.7454 35.5829 32.6251 35.621C32.5211 35.654 32.4379 35.6552 32.346 35.705C32.2321 35.7668 32.2772 35.7854 32.0931 35.8171C31.5848 35.9051 31.7882 35.943 31.5861 35.9978C31.4734 36.0283 31.3891 36.0093 31.2927 36.0575C31.1871 36.1105 31.1695 36.1628 31.0513 36.1815C30.4494 36.2769 30.7652 36.2631 30.5375 36.3434C30.2815 36.4337 30.3004 36.323 29.9976 36.4854L28.3187 36.8712C26.6989 37.1098 26.0809 37.1168 24.3532 37.0659C24.2212 37.062 22.4183 36.8978 22.294 36.8459L21.3306 36.5966C20.7779 36.4967 20.9952 36.4944 20.8331 36.4225C20.6992 36.3632 20.3624 36.3916 20.2307 36.3298C20.1111 36.2738 20.1968 36.2163 19.7013 36.1663C19.6762 35.9557 19.6224 36.0075 19.4117 36.0023C19.1657 35.9963 19.2135 35.9452 19.0757 35.8832C18.9702 35.8359 18.8079 35.8406 18.6792 35.7986C18.5133 35.7444 18.625 35.7131 18.3759 35.6542C18.126 35.595 18.2688 35.5304 18.0811 35.4828C17.5801 35.3557 17.9361 35.3447 17.6073 35.2729C17.3241 35.1806 17.4518 35.1019 17.1018 35.0761C17.0839 35.0331 17.0651 34.9721 17.0427 34.9346C16.7287 34.9196 16.8278 34.955 16.7077 34.763C16.3363 34.7496 16.4129 34.6411 16.3437 34.5941C16.3357 34.5887 15.7675 34.3638 15.4732 34.1188C15.228 33.9147 14.3303 33.3888 14.2217 33.2178L13.4836 32.6276C13.3887 32.5102 13.4264 32.5846 13.3359 32.5063L12.2472 31.4534C12.1026 31.3321 12.013 31.1288 11.8208 31.0758L11.1688 30.2967L10.873 29.8777C10.8021 29.8046 10.8163 29.8652 10.7469 29.7657L9.96906 28.6067C9.91612 28.5371 9.91035 28.5727 9.85638 28.4849C9.77027 28.3453 9.87224 28.4159 9.69137 28.172L8.82308 26.5399C8.77385 26.4952 8.80949 26.516 8.75057 26.4995C8.77344 26.3541 8.70299 26.1734 8.6348 26.0731C8.53304 25.9231 8.56785 25.8088 8.48504 25.6852C8.36597 25.5078 8.40738 25.4979 8.34001 25.2957C8.28151 25.1201 8.2366 25.1152 8.18139 24.8886C8.09858 24.5497 8.07448 24.6921 8.03699 24.4937C8.00815 24.3411 8.00011 24.1515 7.91771 24.0496C7.8108 23.9175 7.83531 23.8324 7.78979 23.6487C7.74756 23.4779 7.69564 23.3745 7.66227 23.2083C7.63199 23.0568 7.62169 22.898 7.58894 22.7402C7.54794 22.5427 7.52611 22.7722 7.46987 22.2973C7.42537 21.922 7.31042 21.593 7.29085 21.3882C7.05169 18.8884 7.06137 18.1849 7.37387 15.7684C7.40415 15.5613 7.44515 15.528 7.47378 15.3148C7.52755 14.9122 7.50921 15.1261 7.57925 14.8848C7.62334 14.7334 7.63261 14.5892 7.67298 14.4162C7.7148 14.2374 7.76816 14.2666 7.80544 14.0186C7.83037 13.8526 7.83861 13.7016 7.91813 13.5605C8.02277 13.3751 7.98219 13.3664 8.03307 13.1363L8.4735 11.8795C8.54272 11.8739 8.47886 11.6292 8.59236 11.4963C8.68341 11.39 8.63398 11.4943 8.6863 11.3219C8.79857 10.9502 8.75984 11.3441 8.90837 10.7961C8.94915 10.6456 9.04515 10.6276 9.05833 10.4674C9.35806 10.3347 9.52451 9.66994 9.77151 9.34137L10.0039 8.93637L10.4606 8.36678C10.8207 8.038 10.5504 8.12494 10.9772 7.84354C11.0827 7.77391 11.2782 7.59593 11.3954 7.55143C11.5073 7.50941 11.6047 7.51332 11.6955 7.47851C11.9547 7.37942 11.876 7.35408 12.267 7.35553C12.8395 7.35759 12.6172 7.42268 12.8514 7.49561ZM18.0045 27.3033C18.311 27.5839 18.5836 27.9988 18.9016 28.2458C19.0905 28.3999 19.0522 28.3393 19.1332 28.4052C19.2945 28.5369 19.5207 28.7799 19.7598 28.9124L20.3599 29.3512C20.8735 29.7574 21.2278 29.8551 21.6814 30.1432C21.7947 30.2238 21.7634 30.1744 21.9028 30.2184C22.018 30.2547 21.9704 30.2971 22.2774 30.4067C22.5505 30.5042 22.2337 30.4803 22.6817 30.5717L23.5028 30.9127C23.582 30.9359 23.6452 30.9394 23.7214 30.9623C23.8378 30.9973 23.8236 31.0278 23.9163 31.0643C24.0508 31.1172 24.2329 31.1145 24.3821 31.1669C24.5559 31.2278 24.5755 31.2783 24.8029 31.3059C25.2145 31.356 25.0213 31.4009 25.246 31.4546C25.4178 31.4958 25.5781 31.4684 25.7375 31.5344C26.0912 31.6806 27.0704 31.7159 27.3217 31.6491C27.3577 31.6394 27.5767 31.4915 27.5957 31.37C27.6498 31.0223 27.2358 30.7194 26.9593 30.5884C26.8355 30.5297 26.8322 30.4846 26.7906 30.4599C26.7412 30.4308 26.6429 30.4314 26.5671 30.4115C26.4425 30.3789 26.4655 30.3589 26.3654 30.3132C26.2177 30.2458 26.0577 30.2675 25.9215 30.19C25.7892 30.1146 25.898 30.1323 25.7495 30.0963L25.1993 29.9033C25.0841 29.8384 25.1554 29.8971 25.1191 29.8237C24.949 29.9002 24.9605 29.8167 24.7926 29.7504C24.6915 29.7104 24.6187 29.7183 24.5254 29.6534C24.4311 29.5877 24.4638 29.571 24.3217 29.5426C24.0864 29.4952 24.1962 29.4946 24.0788 29.4157C23.9775 29.3475 23.9567 29.4084 23.8491 29.3122C23.7424 29.2167 23.8067 29.223 23.6592 29.1604L22.6914 28.5371C22.5171 28.3762 22.6957 28.6024 22.4422 28.342L21.7238 27.7398C21.6311 27.6894 21.6723 27.7588 21.6066 27.6875L21.3602 27.3948C21.2375 27.2932 21.3518 27.4687 21.2389 27.3147C21.1829 27.2384 21.264 27.2665 21.1242 27.1546L20.5985 26.4573C20.5018 26.3926 20.576 26.5034 20.506 26.3821C20.3331 26.0826 20.4334 26.3378 20.3438 26.1565C20.2215 25.9089 20.3764 26.0441 20.2023 25.9038C20.0855 25.8096 19.9287 25.3956 19.8614 25.3243C19.718 25.1721 19.8148 25.2415 19.7343 25.0645C19.6758 24.9354 19.6492 25.0344 19.5928 24.8507C19.4986 24.5444 19.5713 24.7246 19.4652 24.5891C19.3732 24.4715 19.4173 24.4406 19.3684 24.2984C19.3208 24.1596 19.2768 24.2201 19.2337 24.044C19.1206 23.5805 19.0848 23.7121 19.0448 23.4818C18.9956 23.1967 18.9144 23.1817 18.865 22.9213C18.8475 22.8288 18.847 22.6978 18.8221 22.6016C18.7789 22.4345 18.7154 22.4572 18.6618 21.997C18.6427 21.832 18.6423 21.8176 18.5716 21.7003C18.4324 21.4696 18.5572 21.3724 18.38 21.1485C18.2707 21.0102 18.343 20.9917 18.2781 20.8592C18.2233 20.7474 18.18 20.8114 18.1182 20.6372C18.0061 20.3214 17.8008 20.2672 17.7723 20.2384C17.6469 20.1106 17.884 20.2808 17.5746 20.0457C17.4928 19.9835 17.507 19.9508 17.3562 19.8818C16.7495 19.6035 16.7193 19.7287 16.3715 19.8754C16.107 19.987 16.2667 19.902 16.1414 20.0301C15.9556 20.2204 15.7624 20.2631 15.6248 20.8496C15.5632 21.1122 15.5014 21.0063 15.4897 21.4554C15.4839 21.6752 15.4756 21.9939 15.5372 22.1793C15.6746 22.5921 15.5879 22.4712 15.6695 22.7979C15.7235 23.0144 15.7599 22.8896 15.8561 23.3877C15.8776 23.4991 15.9188 23.5508 15.9604 23.6332C16.0199 23.7509 16.0028 23.8153 16.0477 23.9354C16.084 24.0325 16.1194 24.0384 16.1705 24.168L16.7623 25.4833C16.8249 25.596 16.8548 25.5775 16.91 25.6897L17.5752 26.7158C17.6821 26.8339 17.9742 27.1622 18.0045 27.3033Z" fill="#CF0000"/>
<path fill-rule="evenodd" clip-rule="evenodd" d="M21.9844 7.62656C21.9682 7.46527 21.8326 7.44961 21.8058 7.31509C21.5897 7.29037 21.6165 7.19417 21.5265 7.10312C21.1514 6.72428 21.0177 6.8277 21.0591 6.42682C21.152 6.37347 21.2519 6.35863 21.3557 6.30528C21.4629 6.25028 21.446 6.20001 21.613 6.18127C22.3779 6.09578 22.2632 6.22247 22.6589 6.35637C22.8826 6.43197 22.895 6.66187 23.6322 6.53435C23.899 6.48841 23.6582 6.46987 23.8996 6.39159C24.1297 6.31702 24.1174 6.3574 24.3466 6.05293C24.4389 5.91924 24.4531 6.03171 24.489 5.79708C24.5209 5.58778 24.5831 4.9018 24.4363 4.69683C24.3806 4.61938 24.3994 4.69147 24.3337 4.59404C24.2535 4.47497 24.3584 4.50978 24.1833 4.43295C24.0807 4.38289 24.1557 4.36332 24.0498 4.28298C23.3951 3.90188 22.9617 4.16473 22.4764 4.26382C22.2788 4.3042 22.3581 4.33592 22.2195 4.39751C22.1225 4.44057 22.004 4.45767 21.9364 4.50814C21.8281 4.5893 21.4748 4.72155 21.302 4.88429L20.9954 5.1422C20.8154 5.2759 21.0134 5.22007 20.815 5.34388C20.6255 5.46233 20.4135 5.79481 20.2831 5.97959C19.8313 5.99566 19.7273 5.77133 19.3431 5.6982C18.9494 5.62321 19.0104 5.58737 18.8506 5.55338C18.412 5.45965 16.9663 5.48519 16.5967 5.63001C16.4212 5.69882 16.3044 5.70829 16.0867 5.72374C15.9645 5.76618 16.0681 5.83395 15.8959 5.86114C15.568 5.91305 15.658 5.94045 15.4132 6.05128C15.2732 6.11452 15.2975 6.06055 15.287 6.25337C15.1656 6.26573 15.2046 6.24739 15.1335 6.30013C15.1203 6.68267 15.1129 6.54918 15.2573 6.76363C15.5436 7.12846 15.582 7.04709 15.6578 7.13402C15.7363 7.22383 15.6083 7.25061 15.9878 7.26812C16.0729 7.46465 15.912 7.35197 16.1544 7.47186C16.2624 7.52521 16.2372 7.54952 16.3747 7.60329C16.5341 7.6657 16.5007 7.64263 16.6361 7.73513C16.9407 7.94298 17.1422 7.80043 17.0957 8.38258C17.0683 8.72537 17.0433 9.39858 17.2052 9.7014C17.347 9.96672 17.2228 10.1494 17.9172 10.471C18.2894 10.6432 19.1493 10.4259 19.5372 10.3206C19.7802 10.2545 20.0042 9.97908 20.2266 10.273L20.446 10.5378C20.6658 10.7269 20.5132 10.7071 20.7921 10.9333C21.0158 11.1146 21.2161 11.4963 21.57 11.6524C21.7638 11.7379 21.5457 11.7 21.7527 11.8143C21.9294 11.9118 22.0776 12.0333 22.2986 11.9746C22.4039 11.9293 22.3171 11.9639 22.3905 11.9C22.6898 11.6384 22.6667 11.4423 22.7314 11.0307C22.8445 10.3089 22.7569 10.3773 22.7256 9.7531C22.6904 9.04817 22.6523 9.13963 22.4688 8.62134C22.4249 8.49774 22.3925 8.51422 22.34 8.40215C22.3243 8.36899 22.2178 7.90466 21.9847 7.74378L21.9838 7.62636L21.9844 7.62656Z" fill="#73BF0A"/>
<path fill-rule="evenodd" clip-rule="evenodd" d="M42.185 17.5638L41.8245 18.2053C41.7576 18.3639 41.7573 18.2638 41.6898 18.3934C41.6535 18.463 41.6302 18.5724 41.5934 18.6569L40.3199 20.749C40.2593 20.8328 40.2086 20.8153 40.2088 20.9459C40.2012 21.1363 40.1609 21.0502 40.0768 21.1851C40.0447 21.2366 40.0438 21.2648 40.0177 21.3046C39.4162 22.0921 38.5069 22.749 37.8236 23.4076C37.5065 23.7131 37.4627 23.7059 37.1135 23.9138C37.0016 23.9805 37.0653 24.0083 36.9182 24.0658C36.7141 24.1455 36.8578 24.0421 36.6823 24.2014C36.5896 24.2856 36.5307 24.2384 36.4283 24.3048C36.3185 24.3756 36.4312 24.3882 36.2166 24.4432C35.9992 24.4988 36.1113 24.4669 35.9764 24.5658C35.8913 24.6282 35.8252 24.6175 35.7288 24.6749C35.4123 24.8634 35.6301 24.7425 35.3736 24.8243C35.2131 24.8754 35.3019 24.9252 35.0113 24.9909C34.695 25.0624 34.8613 25.1209 34.4794 25.179C34.0713 25.2412 34.3735 25.2892 33.9415 25.3525C33.5007 25.4172 33.6329 25.4654 33.4119 25.514C33.3241 25.5333 33.19 25.5358 33.0944 25.5527C32.763 25.6112 33.21 25.6796 32.2113 25.7293C31.7558 25.7519 32.2257 25.879 30.9627 25.8998C30.36 25.9097 28.6815 25.9583 28.2363 25.8154C27.9959 25.7383 27.9176 25.7418 27.6066 25.7146C27.3184 25.6895 27.3262 25.582 27.0782 25.548C26.4423 25.4614 26.7521 25.4612 26.5368 25.3826C26.4301 25.3434 26.3586 25.356 26.2554 25.3065C26.1454 25.2536 26.193 25.2398 26.0319 25.1955C25.5268 25.0569 25.882 25.0987 25.5196 24.9934C25.3548 24.9456 25.4189 24.9162 25.3074 24.8517C25.0384 24.7071 24.7485 24.5965 24.5133 24.3954C24.4775 24.3579 24.4869 24.257 24.1707 24.2306C24.1586 24.0596 24.1736 24.1307 24.0508 24.0528C23.9657 23.9989 23.9571 23.9679 23.8823 23.9307C23.7933 23.8864 23.7453 23.8989 23.6679 23.8406C23.5575 23.7574 23.6504 23.7527 23.4656 23.7329C23.486 24.1797 23.619 23.9684 23.8498 24.4257C23.9408 24.6065 23.8753 24.463 23.9769 24.5726C24.0572 24.6591 23.9861 24.6331 24.0762 24.7149C24.3656 24.9782 24.1421 24.9022 24.3623 24.9318C24.3819 25.1409 24.443 25.0832 24.7329 25.3947C24.8542 25.5251 24.827 25.4297 24.914 25.5373C25.1109 25.7807 24.7945 25.4744 24.9842 25.6232C25.0312 25.66 25.0479 25.6423 25.0891 25.6905C25.1665 25.7816 25.0081 25.6786 25.2502 25.8615L25.8815 26.3644C26.1273 26.4585 25.9483 26.4029 26.0688 26.5009L26.4798 26.7469C26.6192 26.8221 26.4866 26.7459 26.5723 26.8307C26.7008 26.9585 26.7125 26.868 26.8726 27.0065C27.0737 27.1801 27.0936 27.0293 27.2463 27.2926C27.2755 27.2953 28.1552 27.7505 28.3991 27.8031C28.9359 27.9186 28.6529 27.933 29.0233 28.0134C29.3605 28.0867 29.2737 28.1248 29.6911 28.2081L30.3406 28.3832C30.4762 28.3998 30.5903 28.4035 30.7205 28.4285C30.8428 28.452 30.8873 28.4954 31.0699 28.5226C31.7542 28.6244 32.7815 28.6159 33.5235 28.6075C33.7965 28.6044 34.0538 28.5605 34.3261 28.5523C34.8883 28.5356 34.8631 28.4672 35.0469 28.4363C35.3027 28.3932 35.5602 28.3959 35.7939 28.316C36.0102 28.2422 36.2491 28.2282 36.477 28.1582L38.05 27.587C38.1773 27.5128 38.2094 27.4794 38.4072 27.4716C38.4609 27.3917 39.1183 27.1581 39.2299 26.9605C39.3053 26.8272 39.4092 26.771 39.5179 26.7244L40.0461 26.3442C40.1831 26.2393 40.0428 26.2422 40.2214 26.1717C40.585 26.0356 40.1446 26.1621 40.4107 26.0014C40.8652 25.714 41.8344 24.6261 42.1164 24.2275L42.5867 23.4348C42.6534 23.3532 42.8578 22.8506 42.9009 22.7713C42.9713 22.6415 42.9674 22.7696 43.057 22.4333C43.0749 22.3661 43.0838 22.3171 43.1213 22.2483C43.2908 21.9374 43.1903 21.9261 43.3032 21.6842C43.4505 21.3684 43.3417 21.3283 43.4564 21.3606C43.4264 21.1989 43.5271 21.0959 43.5669 20.7671C43.5934 20.5486 43.6068 20.3055 43.6334 20.1067L43.7236 19.4909V18.0899L43.5162 16.9054C43.3757 16.6564 43.3227 16.6152 43.1005 16.6308C43.0249 16.7287 43.0957 16.6908 43.0018 16.7606C42.7861 16.9213 42.9802 16.6339 42.426 17.3176C42.3107 17.4658 42.4023 17.5074 42.1858 17.5642L42.185 17.5638Z" fill="#E6340C"/>
<path fill-rule="evenodd" clip-rule="evenodd" d="M37.0647 21.4394C37.7704 20.8385 38.4158 20.3167 39.0629 19.4031C39.1782 19.2403 39.1685 19.3161 39.2402 19.1929L39.9227 18.1594C39.941 17.8805 40.0325 17.9075 40.112 17.7246L40.8477 16.065C40.901 15.755 41.0464 15.4658 41.1272 15.1677L41.4113 13.681C41.4908 12.2044 41.4549 11.1313 40.9222 9.76082C40.893 9.6914 40.8796 9.60385 40.8575 9.52083L40.5193 8.83176C40.4649 8.59878 40.4771 8.68262 40.3693 8.53265C40.3121 8.45293 40.3277 8.39813 40.2832 8.31573C40.2272 8.21191 40.2216 8.29225 40.1606 8.14311C40.0133 7.7824 38.9261 6.43701 38.648 6.22772C38.551 6.15479 38.5361 6.07239 38.457 5.97598C38.34 5.83343 37.982 5.5576 37.8252 5.41875C37.6481 5.26199 37.4853 5.14993 37.235 5.11017C36.691 5.02365 36.905 5.94776 36.9489 6.42548C36.9874 6.84427 37.0455 6.49407 37.1201 7.17964C37.1479 7.43467 37.1201 7.39718 37.2299 7.56012C37.2983 7.66189 37.2744 7.7859 37.3028 7.93319C37.3393 8.12127 37.4348 8.0022 37.5008 8.65131C37.5249 8.88862 37.6242 8.96566 37.6654 9.41742C37.6794 9.57048 37.7181 9.66483 37.7651 9.78595C37.9126 10.1662 37.8771 12.2553 37.8203 12.9046C37.8046 13.0842 37.7803 13.1392 37.7305 13.2807C37.6476 13.5162 37.6701 13.8287 37.6141 14.093C37.5836 14.237 37.5205 14.2164 37.4962 14.4267C37.4478 14.8455 37.0278 15.9379 36.8836 16.3314C36.8562 16.4049 36.8236 16.426 36.7946 16.4777L36.5962 17.0096C36.5474 17.36 36.4129 17.154 36.3863 17.5243C36.135 17.6016 36.2658 17.6807 36.1284 17.8368C36.0036 17.9786 35.9957 18.1658 35.8044 18.4071C35.7372 18.4734 35.7691 18.37 35.6703 18.5103L35.332 18.9437C35.2848 19.0162 35.2852 19.0634 35.2541 19.1081C35.1894 19.2014 35.2055 19.1143 35.1196 19.2397C34.6718 19.8272 33.9285 20.6253 33.3744 21.1287C33.2724 21.2152 33.2928 21.2597 33.1836 21.3193L32.7704 21.6594C32.6907 21.7438 32.6367 21.687 32.5588 21.8081C32.4787 21.9325 32.4742 21.8489 32.3434 21.9422C32.2984 21.9744 32.2861 22.0057 32.2346 22.0405L30.936 22.778C30.8212 22.8295 30.4088 22.9864 30.3303 23.0596C30.2086 23.1729 30.1972 23.1442 30.0102 23.172C29.5731 23.2373 30.2073 23.2746 29.3226 23.3694C29.0756 23.3958 29.2091 23.4503 28.9868 23.488C28.7373 23.5303 28.3855 23.5115 28.1624 23.5604C28.0219 23.591 28.0452 23.6467 27.8437 23.684C27.7018 23.7101 27.5677 23.7081 27.4307 23.7359C27.5372 24.0418 28.0777 24.0014 28.342 24.0226C28.707 24.0521 28.9835 24.1419 29.3838 24.1497C30.4271 24.1701 30.6185 24.084 31.5869 23.9752C31.6652 23.8207 32.0683 23.8463 32.3798 23.7973C32.6208 23.7593 32.591 23.6959 32.7762 23.6578C33.2351 23.5632 32.9519 23.6347 33.1867 23.506C33.3035 23.4421 33.4893 23.4674 33.6195 23.4009C33.685 23.3675 33.7011 23.3335 33.7884 23.3031C33.8556 23.2798 33.9596 23.2752 34.0262 23.2408C34.1452 23.1792 34.0818 23.1549 34.1652 23.1185C34.2841 23.0662 34.3484 23.1366 34.4763 23.0033C34.5789 22.8964 34.6621 22.9003 34.8187 22.8921C34.8442 22.8476 34.8683 22.7856 34.8912 22.7324C35.0986 22.7213 35.3215 22.5944 35.4719 22.4809C35.6416 22.3233 35.5893 22.4284 35.7397 22.3388L36.2328 21.9989C36.3799 21.9397 36.2839 21.9832 36.355 21.9066C36.505 21.7447 36.7359 21.6886 36.843 21.5523C36.9301 21.4412 36.9161 21.4544 37.0641 21.439L37.0647 21.4394Z" fill="#F59300"/>
<path fill-rule="evenodd" clip-rule="evenodd" d="M25.2763 2.39594L26.3273 2.94349C26.9808 3.22035 27.9261 3.92425 28.5117 4.43184L29.6649 5.65919C29.9789 5.9445 30.73 7.06802 30.9112 7.42666L31.7698 9.15995C32.0873 10.1846 32.3145 10.8053 32.488 11.8969C32.64 12.8527 32.6598 15.4938 32.4309 16.3739C32.3631 16.6347 32.2039 17.5507 32.083 17.7545C31.9299 18.0122 32.0659 17.9257 31.8994 18.1943C31.8391 18.2915 31.8737 18.2602 31.836 18.3725C31.796 18.492 31.7169 18.5636 31.6796 18.6269C31.4852 18.9721 31.2555 19.5308 30.8626 19.9873C30.5077 20.3322 30.3876 20.6076 30.2912 20.7258C30.1707 20.8733 30.1791 20.8109 30.1917 21.0653C30.3408 21.0828 30.3287 21.0783 30.4315 21.0144C30.6572 20.8746 30.5703 21.0076 30.8062 20.8224C31.1586 20.5458 31.7604 20.1719 32.1106 19.7486L33.0285 18.7169C33.0427 18.5018 33.0052 18.5978 33.1268 18.4707C33.2405 18.3517 33.1987 18.3484 33.2485 18.211C33.5002 18.1638 33.3579 18.1205 33.4648 18.0037C33.5585 17.9011 33.5952 17.9553 33.6098 17.7011C33.8811 17.5946 33.6832 17.5604 33.8694 17.3688C34.1135 17.0613 34.1364 16.819 34.2227 16.7412C34.3385 16.6363 34.283 16.6686 34.3434 16.5003C34.4087 16.318 34.4546 16.3932 34.5028 16.1769C34.6026 15.7309 34.5317 16.0165 34.644 15.8494C34.7101 15.7511 34.6891 15.5966 34.7599 15.4866C34.8442 15.3558 34.8349 15.4409 34.8977 15.1189C34.9369 14.9174 34.99 14.9842 35.037 14.7881C35.194 14.1311 35.4082 13.4029 35.4284 12.7316C35.4441 12.2075 35.6328 10.8875 35.5193 10.4635C35.4109 10.0591 35.4517 9.34308 35.3652 9.13008L35.1981 8.32318C35.175 8.07268 35.1188 8.13695 35.0772 7.96597C35.0459 7.83784 35.0419 7.69096 35.0053 7.55562L34.4785 6.10971C33.9918 5.21649 33.7699 4.81665 33.1896 4.00851C33.1709 3.98296 33.101 3.93188 33.0691 3.89541C33.0102 3.82785 33.0291 3.81816 32.9737 3.74895C32.6777 3.42202 31.5766 2.39223 31.1904 2.14153L29.2795 1.14099C29.1994 1.12389 29.1462 1.12389 29.0811 1.09258C28.9497 1.02954 29.0684 1.03799 28.9077 1.00111C28.796 0.975364 28.6075 0.959913 28.5047 0.922627C28.4456 0.901203 28.4205 0.862269 28.3587 0.837961C28.2003 0.775749 27.8357 0.789963 27.7098 0.734343C27.5631 0.669659 27.7322 0.688406 27.5656 0.655858C27.0974 0.563982 24.6068 0.437498 24.1639 0.666158C24.064 0.717658 23.9575 0.7844 23.8691 0.849908C23.8512 0.96877 23.8388 1.08022 23.892 1.16694C24.1114 1.51179 24.5055 1.83583 24.8579 2.03626C24.9453 2.08591 24.9957 2.14709 25.0617 2.1885C25.2335 2.29644 25.1947 2.18335 25.2761 2.39635L25.2763 2.39594Z" fill="#73BF0A"/>
<path d="M4.33739 44.9469C3.91055 45.2347 3.4417 45.3785 2.93123 45.3785C2.66199 45.3785 2.36988 45.3366 2.05429 45.2532C1.86415 45.2067 1.68081 45.1395 1.50448 45.0513C1.17961 44.8843 0.920878 44.6859 0.728268 44.4562C0.535658 44.2265 0.383836 43.9284 0.27239 43.5617C0.184222 43.2927 0.140137 43.0004 0.140137 42.6848C0.140137 42.4761 0.165683 42.258 0.216771 42.0305C0.295669 41.6871 0.397845 41.4076 0.523093 41.1919C0.648341 40.976 0.829414 40.7731 1.0659 40.5828C1.35822 40.3368 1.68534 40.1745 2.04729 40.0956C2.27471 40.0445 2.47185 40.019 2.63892 40.019C2.87541 40.019 3.11334 40.0643 3.3523 40.1547C3.59126 40.2451 3.91715 40.4087 4.33018 40.6454C4.35346 40.6594 4.3893 40.6757 4.43812 40.6942C4.48674 40.7128 4.54133 40.728 4.60169 40.7395C4.66204 40.7511 4.72693 40.7571 4.79656 40.7571C4.83838 40.7571 4.87072 40.7548 4.894 40.7501L4.92881 40.8615C4.97516 41.0008 4.99844 41.1491 4.99844 41.3069C4.99844 41.4647 4.97063 41.648 4.91481 41.8567C4.87319 41.9867 4.82891 42.0934 4.78256 42.177C4.49024 42.7013 4.05414 42.9635 3.47404 42.9635C3.41368 42.9635 3.35333 42.9635 3.29297 42.9635C3.23261 42.9495 3.18852 42.9402 3.16071 42.9357C2.83606 42.8801 2.57362 42.7456 2.37421 42.5322C2.1748 42.3187 2.07489 42.089 2.07489 41.8431C2.07489 41.7409 2.0959 41.6435 2.13751 41.5508C2.17913 41.4579 2.22671 41.386 2.28027 41.3349C2.33363 41.2838 2.39275 41.2502 2.45784 41.2339C2.52273 41.2177 2.57836 41.2096 2.62491 41.2096C2.70855 41.2096 2.78497 41.2327 2.8546 41.2793C2.96584 41.3582 3.02166 41.4579 3.02166 41.5786C3.02166 41.7178 2.99262 41.821 2.93473 41.8884C2.87685 41.9558 2.7687 42.0149 2.61111 42.066L2.52067 42.0868C2.57176 42.3142 2.72956 42.4279 2.99406 42.4279C3.17967 42.4279 3.33623 42.3525 3.46395 42.2017C3.59146 42.0509 3.65532 41.8456 3.65532 41.5858C3.65532 41.4743 3.64152 41.3514 3.6135 41.2168C3.54388 40.9198 3.38381 40.6971 3.13332 40.5486C2.97099 40.4511 2.79466 40.4025 2.60431 40.4025C2.46506 40.4025 2.31426 40.4303 2.15193 40.486C1.92925 40.5649 1.74817 40.7297 1.60912 40.9804C1.45607 41.2539 1.37943 41.5883 1.37943 41.9825C1.37943 42.1451 1.39324 42.3214 1.42125 42.5116C1.50015 42.9987 1.66845 43.3965 1.92575 43.7051C2.18325 44.0137 2.52315 44.2284 2.94565 44.3491C3.14053 44.4094 3.33767 44.4395 3.53708 44.4395C3.95011 44.4395 4.46058 44.2609 5.06848 43.9035L5.18673 43.8269C5.07075 44.2632 4.7877 44.6367 4.33759 44.9475L4.33739 44.9469ZM5.61109 45.2114C5.69925 45.1187 5.76291 45.0095 5.80246 44.8843C5.84201 44.759 5.86158 44.5942 5.86158 44.3901V40.7847C5.86158 40.5434 5.78042 40.3809 5.61788 40.2975C5.9891 40.2975 6.35104 40.2301 6.70371 40.0956L7.01683 39.9493V44.599C7.01683 44.8727 7.10047 45.0769 7.26753 45.2114H5.61109ZM9.83594 45.2114L9.80813 45.0095C9.76178 45.0373 9.7212 45.0629 9.68638 45.0861C9.65157 45.1094 9.59925 45.135 9.52962 45.1628C9.27892 45.2647 9.04243 45.3158 8.81974 45.3158C8.55524 45.3158 8.32905 45.2427 8.14118 45.0967C7.9531 44.9506 7.82682 44.7499 7.76173 44.4945C7.73392 44.3878 7.71991 44.2858 7.71991 44.1882C7.71991 43.9981 7.77326 43.81 7.87997 43.6244C7.93559 43.5222 8.01696 43.419 8.12367 43.3145C8.23038 43.2101 8.36489 43.1069 8.52722 43.0047C8.63393 42.9398 8.74888 42.883 8.87186 42.8342C8.99484 42.7853 9.15841 42.7332 9.36255 42.6776L9.51561 42.6358L9.4878 42.4547C9.44598 42.2273 9.28366 42.1136 9.00061 42.1136C8.87536 42.1136 8.73961 42.1381 8.59335 42.1867C8.4473 42.2355 8.28352 42.3179 8.10266 42.4339L7.97741 42.5105C7.99595 42.362 8.04456 42.2275 8.12346 42.1068C8.20236 41.986 8.32761 41.8655 8.49941 41.7448C8.56904 41.6983 8.64547 41.6579 8.7291 41.6231C8.81253 41.5883 8.91244 41.557 9.02842 41.5291C9.21877 41.4873 9.39036 41.4665 9.54342 41.4665C9.88208 41.4665 10.1466 41.564 10.3369 41.7588C10.5273 41.9537 10.6455 42.239 10.6919 42.615L10.9426 44.7588C10.9518 44.8332 10.9809 44.9121 11.0295 44.9955C11.0783 45.0789 11.142 45.1508 11.2211 45.2112H9.83594V45.2114ZM9.54836 42.8867C9.42765 42.9608 9.32794 43.0445 9.25028 43.1372C9.17365 43.2301 9.10052 43.3553 9.03336 43.5131C8.96497 43.6709 8.93139 43.8147 8.93139 43.9447C8.93139 43.9725 8.93139 44.0003 8.93139 44.0281C8.93139 44.0652 8.93139 44.0908 8.93139 44.1048C8.93139 44.3229 8.97898 44.5015 9.07415 44.6408C9.16912 44.78 9.2956 44.8495 9.4536 44.8495C9.58812 44.8495 9.69483 44.7938 9.77373 44.6824L9.54857 42.8867H9.54836ZM12.2235 41.1674C12.0286 41.1674 11.865 41.1128 11.7328 41.0038C11.6005 40.8949 11.5344 40.7568 11.5344 40.5898C11.5344 40.4042 11.5923 40.2511 11.7085 40.1304C11.8245 40.0097 11.987 39.9493 12.1957 39.9493C12.4138 39.9493 12.5797 40.0039 12.6934 40.1129C12.8071 40.2221 12.8639 40.3762 12.8639 40.5758C12.8639 40.7428 12.8048 40.8833 12.6866 40.9968C12.5683 41.1106 12.4138 41.1674 12.2237 41.1674H12.2235ZM11.4232 45.2114L11.5344 45.0931C11.6271 44.9584 11.6737 44.8216 11.6737 44.6824V42.2392C11.6737 42.0443 11.5925 41.8981 11.43 41.8009C11.6712 41.8009 11.9091 41.7706 12.1433 41.7104C12.3778 41.6501 12.604 41.5642 12.8219 41.4529V44.6894C12.8219 44.7683 12.8545 44.8705 12.9193 44.9957C12.9704 45.0839 12.996 45.1302 12.996 45.135C13.0193 45.1628 13.0448 45.1883 13.0726 45.2116H11.4232V45.2114ZM15.5716 42.6582C15.4278 42.6001 15.3164 42.527 15.2375 42.4413C15.0611 42.409 14.9379 42.4714 14.8685 42.6292V44.78C14.8685 44.9053 14.9241 45.0215 15.0356 45.1282C15.0634 45.1605 15.0982 45.1885 15.14 45.2116H13.4696L13.567 45.1072C13.6644 44.9724 13.7131 44.8484 13.7131 44.7372V42.3659C13.7131 42.2454 13.676 42.1327 13.6016 42.0305L13.4694 41.8913L13.8103 41.7879L14.1584 41.6777L14.5134 41.5675L14.8683 41.4502V42.1068L14.9728 41.9607C15.1073 41.7891 15.2222 41.6719 15.3172 41.6093C15.4124 41.5467 15.4983 41.5096 15.5747 41.4978C15.6513 41.4863 15.7127 41.4805 15.7593 41.4805C15.9494 41.4805 16.1014 41.5419 16.2151 41.6649C16.3289 41.7879 16.3857 41.9514 16.3857 42.1556C16.3857 42.3367 16.3392 42.4769 16.2465 42.5767C16.1538 42.6766 16.0308 42.7264 15.8775 42.7264C15.7708 42.7264 15.6688 42.7031 15.5712 42.658L15.5716 42.6582ZM19.8523 44.8612C19.7779 44.9481 19.6887 45.0225 19.5843 45.0851C19.4798 45.1467 19.3313 45.2046 19.1387 45.2579C18.9461 45.3103 18.7617 45.3368 18.5854 45.3368C18.409 45.3368 18.2164 45.309 18.0075 45.2534C17.7383 45.179 17.5086 45.0678 17.3185 44.9203C17.1281 44.772 16.9843 44.614 16.8869 44.4469C16.7895 44.2811 16.7176 44.0629 16.671 43.7939C16.6477 43.6466 16.6362 43.5166 16.6362 43.4052C16.6362 43.2381 16.6595 43.063 16.7058 42.8774C16.7802 42.6036 16.8904 42.3704 17.0365 42.1756C17.1827 41.9807 17.3626 41.8287 17.576 41.7172C17.7383 41.6291 17.8938 41.5745 18.0424 41.5537C18.1909 41.5329 18.3114 41.5223 18.4043 41.5223C18.627 41.5223 18.873 41.5942 19.142 41.7382C19.2858 41.8171 19.4158 41.9354 19.5317 42.0932C19.6477 42.251 19.7359 42.4366 19.7962 42.65C19.8381 42.7847 19.8589 42.9238 19.8589 43.0678C19.8589 43.1652 19.8473 43.2719 19.8241 43.3879H17.8055L17.8751 43.6303C17.9956 43.9527 18.1917 44.2104 18.4632 44.4018C18.7347 44.5934 19.0396 44.6894 19.3785 44.6894C19.5408 44.6894 19.6986 44.6673 19.8517 44.6233L20.0397 44.5641C19.9932 44.6696 19.9306 44.7683 19.8517 44.8612H19.8523ZM18.6064 42.5944C18.5553 42.3206 18.4371 42.1327 18.2514 42.0305C18.2236 42.012 18.1901 41.9982 18.1505 41.9887C18.1112 41.9795 18.0774 41.9749 18.0496 41.9749C17.8732 41.9749 17.7573 42.0676 17.7016 42.2532C17.6691 42.3554 17.6528 42.4759 17.6528 42.6152C17.6528 42.6523 17.6576 42.7266 17.6668 42.8379L17.6876 42.9979H18.6274L18.6342 42.8587C18.6342 42.7565 18.6249 42.6683 18.6064 42.5942V42.5944ZM24.389 45.2186C24.3241 45.2371 24.2615 45.2509 24.2011 45.2602C24.1408 45.2695 24.0596 45.274 23.9574 45.274C23.7766 45.274 23.5376 45.2509 23.2406 45.2044C23.199 45.1999 23.1571 45.1999 23.1153 45.2044C23.0735 45.2089 23.0016 45.2254 22.8994 45.2532C22.8438 45.267 22.795 45.2823 22.7534 45.2983C22.7116 45.3146 22.6559 45.3389 22.5863 45.3715L22.4262 45.1348C22.2685 44.9073 22.0966 44.6801 21.9112 44.4527C22.0458 44.3785 22.185 44.3415 22.3288 44.3415C22.4866 44.3415 22.6687 44.3843 22.8751 44.4702C23.0815 44.5561 23.3195 44.6919 23.5885 44.8775C23.6348 44.9098 23.6917 44.9331 23.7591 44.9471C23.8264 44.9611 23.8994 44.9681 23.9785 44.9681C24.0619 44.9681 24.1398 44.9576 24.2116 44.9368C24.2835 44.916 24.3404 44.8845 24.3822 44.8429C24.4751 44.7407 24.5215 44.6399 24.5215 44.5423C24.5215 44.4171 24.4496 44.2963 24.3058 44.1804C24.264 44.1478 24.2246 44.1223 24.1873 44.1037C24.1503 44.0852 24.0598 44.0516 23.916 44.0051L22.7884 43.6291L22.5865 43.5387C22.3962 43.4355 22.2534 43.3045 22.1584 43.1442C22.0633 42.9839 22.0157 42.803 22.0157 42.6036C22.0157 42.4133 22.054 42.2497 22.1304 42.1152C22.2071 41.9807 22.3311 41.8462 22.5027 41.7104C22.6096 41.6268 22.7208 41.5677 22.8368 41.5329C22.9528 41.498 23.1013 41.4807 23.2824 41.4807C23.4076 41.4807 23.5364 41.4875 23.6686 41.5028C23.8009 41.5178 23.9692 41.5456 24.1733 41.5852C24.2104 41.5897 24.2545 41.5839 24.3056 41.5689C24.3845 41.5318 24.4516 41.5015 24.5075 41.4807C24.656 41.7683 24.8278 42.0561 25.0227 42.3437C24.902 42.376 24.7975 42.3925 24.7093 42.3925C24.5841 42.3925 24.4473 42.3647 24.2988 42.3101C24.2106 42.2777 24.1352 42.244 24.0726 42.2104C24.01 42.1756 23.8835 42.0967 23.6931 41.9725C23.605 41.9133 23.5133 41.868 23.4181 41.839C23.3232 41.8089 23.2453 41.7936 23.1849 41.7936C23.0968 41.7984 23.0224 41.8355 22.9623 41.9051C22.9019 41.9747 22.8718 42.0511 22.8718 42.1358C22.8718 42.1776 22.8786 42.217 22.8928 42.2541C22.9299 42.3422 23.0226 42.4349 23.1711 42.5326C23.1852 42.5418 23.22 42.5581 23.2756 42.5814C23.3312 42.6047 23.4356 42.6393 23.5889 42.6858L24.5217 42.9584C24.5635 42.9676 24.6214 42.9909 24.6957 43.028C25.1273 43.2474 25.343 43.565 25.343 43.984C25.343 44.1975 25.2781 44.4179 25.1481 44.6465C24.9858 44.9248 24.7328 45.1162 24.3894 45.2184L24.389 45.2186ZM30.7161 45.0653C30.5536 45.1164 30.3762 45.1535 30.1836 45.1768C29.991 45.2001 29.7277 45.2116 29.3936 45.2116H27.6117L27.7439 45.0445C27.8599 44.8544 27.918 44.6663 27.918 44.4807V40.9031L27.8414 40.9587L27.7649 41.0073L27.6745 41.07L27.5909 41.1396L27.4586 40.7985L27.6117 40.6592C27.802 40.4921 27.9934 40.3634 28.186 40.273C28.3786 40.1825 28.6141 40.1094 28.8926 40.0536C29.0504 40.0212 29.2337 40.0049 29.4424 40.0049C29.6095 40.0049 29.8091 40.0187 30.041 40.0468C30.417 40.1024 30.7486 40.1998 31.0364 40.3391C31.4725 40.5525 31.8124 40.8263 32.0561 41.1604C32.2996 41.4945 32.4494 41.8981 32.505 42.3717V42.8797C32.4494 43.4412 32.2765 43.8994 31.9865 44.2543C31.6965 44.6095 31.2731 44.8797 30.7161 45.0653ZM30.7229 41.1466C30.6117 40.9935 30.4967 40.8658 30.3785 40.7639C30.26 40.6617 30.1405 40.5828 30.02 40.5272C29.8019 40.4297 29.614 40.3809 29.4562 40.3809C29.4191 40.3809 29.3761 40.3844 29.3275 40.3914C29.2786 40.3984 29.2265 40.4112 29.1709 40.4297V44.8565H29.3728C29.7763 44.8194 30.1245 44.6661 30.4168 44.3971C30.672 44.1649 30.8484 43.8946 30.9458 43.5861C31.0432 43.2775 31.0918 42.8564 31.0918 42.3227C31.0918 42.0629 31.0618 41.8447 31.0014 41.6684C30.9411 41.4921 30.8481 41.3182 30.7229 41.1464V41.1466ZM36.2843 44.8612C36.2101 44.9481 36.1207 45.0225 36.0163 45.0851C35.9118 45.1467 35.7633 45.2046 35.5709 45.2579C35.3783 45.3103 35.1939 45.3368 35.0176 45.3368C34.8413 45.3368 34.6486 45.309 34.4398 45.2534C34.1707 45.179 33.941 45.0678 33.7507 44.9203C33.5603 44.772 33.4166 44.614 33.3191 44.4469C33.2217 44.2811 33.1498 44.0629 33.1034 43.7939C33.0802 43.6466 33.0686 43.5166 33.0686 43.4052C33.0686 43.2381 33.0919 43.063 33.1382 42.8774C33.2124 42.6036 33.3226 42.3704 33.4689 42.1756C33.6149 41.9807 33.7948 41.8287 34.0084 41.7172C34.1709 41.6291 34.3262 41.5745 34.4748 41.5537C34.6233 41.5329 34.744 41.5223 34.8367 41.5223C35.0594 41.5223 35.3054 41.5942 35.5746 41.7382C35.7184 41.8171 35.8484 41.9354 35.9644 42.0932C36.0803 42.251 36.1685 42.4366 36.2289 42.65C36.2707 42.7847 36.2915 42.9238 36.2915 43.0678C36.2915 43.1652 36.2797 43.2719 36.2567 43.3879H34.2381L34.3077 43.6303C34.4284 43.9527 34.6243 44.2104 34.8958 44.4018C35.1674 44.5934 35.4722 44.6894 35.8111 44.6894C35.9734 44.6894 36.1312 44.6673 36.2843 44.6233L36.4724 44.5641C36.4258 44.6696 36.3632 44.7683 36.2843 44.8612ZM35.0384 42.5944C34.9873 42.3206 34.8691 42.1327 34.6835 42.0305C34.6556 42.012 34.6219 41.9982 34.5825 41.9887C34.543 41.9795 34.5094 41.9749 34.4816 41.9749C34.3052 41.9749 34.1893 42.0676 34.1334 42.2532C34.1011 42.3554 34.0846 42.4759 34.0846 42.6152C34.0846 42.6523 34.0893 42.7266 34.0986 42.8379L34.1196 42.9979H35.0592L35.066 42.8587C35.066 42.7565 35.0567 42.6683 35.0382 42.5942L35.0384 42.5944ZM36.8203 45.2114C36.9085 45.1187 36.9721 45.0095 37.0117 44.8843C37.051 44.759 37.0708 44.5942 37.0708 44.3901V40.7847C37.0708 40.5434 36.9896 40.3809 36.8271 40.2975C37.1983 40.2975 37.5602 40.2301 37.9129 40.0956L38.2262 39.9493V44.599C38.2262 44.8727 38.3097 45.0769 38.4767 45.2114H36.8203ZM39.6742 41.1674C39.4793 41.1674 39.3158 41.1128 39.1835 41.0038C39.0513 40.8949 38.9851 40.7568 38.9851 40.5898C38.9851 40.4042 39.043 40.2511 39.1592 40.1304C39.2752 40.0097 39.4375 39.9493 39.6464 39.9493C39.8646 39.9493 40.0304 40.0039 40.1441 40.1129C40.2578 40.2221 40.3147 40.3762 40.3147 40.5758C40.3147 40.7428 40.2556 40.8833 40.1373 40.9968C40.0191 41.1106 39.8646 41.1674 39.6744 41.1674H39.6742ZM38.8737 45.2114L38.9851 45.0931C39.0779 44.9584 39.1244 44.8216 39.1244 44.6824V42.2392C39.1244 42.0443 39.0432 41.8981 38.8807 41.8009C39.1221 41.8009 39.3599 41.7706 39.5941 41.7104C39.8285 41.6501 40.0547 41.5642 40.2726 41.4529V44.6894C40.2726 44.7683 40.3052 44.8705 40.3701 44.9957C40.4212 45.0839 40.4467 45.1302 40.4467 45.135C40.4698 45.1628 40.4955 45.1883 40.5231 45.2116H38.8737V45.2114ZM43.6914 46.2694C43.5394 46.325 43.369 46.3716 43.181 46.4087C42.9943 46.4457 42.7982 46.4643 42.5941 46.4643C41.9363 46.4643 41.5383 46.4365 41.3993 46.3809C41.3156 46.3483 41.2495 46.317 41.2021 46.2869C41.1535 46.2568 41.1104 46.2231 41.0734 46.186C41.0037 46.1163 40.9689 46.0352 40.9689 45.9423C40.9689 45.8078 41.0338 45.7103 41.1638 45.65C41.2275 45.6222 41.2926 45.6081 41.3577 45.6081C41.404 45.6081 41.4563 45.6129 41.5142 45.6222C41.5711 45.6314 41.664 45.6743 41.7915 45.7509C41.9192 45.8275 42.0653 45.9215 42.2323 46.0327C42.2694 46.056 42.3077 46.0733 42.346 46.085C42.3854 46.0968 42.4492 46.1023 42.5374 46.1023C42.5885 46.1023 42.6419 46.1001 42.6975 46.0955C42.7521 46.091 42.8032 46.0815 42.8495 46.0677C42.9978 46.0166 43.114 45.9402 43.1962 45.838C43.2798 45.7361 43.3214 45.6294 43.3214 45.5179C43.3214 45.4623 43.3074 45.4135 43.2796 45.3717L43.0569 45.0723L42.9595 44.9401C42.811 45.1304 42.6231 45.2464 42.3957 45.2882C42.3308 45.302 42.2704 45.309 42.2148 45.309C41.9085 45.309 41.6417 45.1743 41.4145 44.9053C41.1685 44.613 41.0223 44.2162 40.9759 43.715C40.9714 43.6825 40.9691 43.6524 40.9691 43.6246C40.9691 43.5922 40.9691 43.569 40.9691 43.5549C40.9691 43.5131 40.9714 43.4657 40.9759 43.4122C40.9807 43.3588 40.9829 43.3183 40.9829 43.2902C41.0155 42.9701 41.1047 42.6778 41.2509 42.4133C41.397 42.1488 41.5723 41.9446 41.7764 41.8009C41.9388 41.6894 42.1046 41.6115 42.2741 41.5677C42.4435 41.5236 42.6489 41.5015 42.8901 41.5015C43.0386 41.5015 43.3264 41.5549 43.7532 41.6616C43.767 41.6663 43.7926 41.6686 43.8299 41.6686C43.8531 41.6686 43.8787 41.6686 43.9065 41.6686C43.9576 41.6548 44.0109 41.6431 44.0666 41.6338C44.1222 41.6245 44.1895 41.5967 44.2684 41.5504L44.2336 41.6616C44.2291 41.6756 44.2138 41.7475 44.1885 41.8775C44.163 42.0075 44.1502 42.0909 44.1502 42.128V44.6478L44.3172 44.9191C44.4285 45.1002 44.4843 45.2717 44.4843 45.4343C44.4843 45.6106 44.4194 45.7684 44.2894 45.9075C44.1607 46.0467 43.9613 46.1674 43.692 46.2694H43.6914ZM42.9943 42.2951C42.9943 42.2532 42.9758 42.1929 42.9387 42.114L42.8691 42.0165C42.8134 41.9469 42.7391 41.9121 42.6464 41.9121C42.5164 41.9121 42.4167 41.9772 42.3471 42.107C42.3052 42.1766 42.2752 42.245 42.2566 42.3124C42.2381 42.3795 42.2208 42.4736 42.2045 42.5944C42.1882 42.7151 42.18 42.8729 42.18 43.0678C42.18 43.5179 42.2101 43.8473 42.2704 44.0561C42.3308 44.2648 42.419 44.4156 42.5349 44.5085C42.6046 44.5551 42.6672 44.5781 42.7228 44.5781C42.8203 44.5781 42.8944 44.5341 42.9455 44.4459C42.9688 44.4041 42.9826 44.3485 42.9873 44.2788C42.9921 44.2092 42.9943 44.1326 42.9943 44.0491V42.2951ZM46.7112 45.2114C46.8272 45.0826 46.885 44.904 46.885 44.6779V42.4343C46.885 42.3599 46.8537 42.2963 46.7911 42.2429C46.7285 42.1896 46.6508 42.1628 46.5579 42.1628C46.5256 42.1628 46.5023 42.1651 46.4883 42.1698C46.3212 42.2116 46.2376 42.2998 46.2376 42.4343V44.6198C46.2376 44.8612 46.3212 45.0583 46.4883 45.2114H44.8388L44.9293 45.107C44.9756 45.0419 45.0129 44.97 45.0407 44.8913C45.0685 44.8124 45.0825 44.745 45.0825 44.6894V40.6942C45.0825 40.6201 45.0617 40.5469 45.0199 40.475C44.9783 40.4031 44.9225 40.3438 44.8529 40.2977C45.0803 40.2977 45.3042 40.2674 45.5246 40.2072C45.745 40.1456 45.9828 40.0599 46.238 39.9473V41.8847C46.3169 41.8013 46.3993 41.7362 46.4852 41.6898C46.5711 41.6433 46.6813 41.6064 46.8158 41.5784C46.9506 41.5506 47.0593 41.5366 47.143 41.5366C47.412 41.5366 47.6289 41.6097 47.7937 41.7559C47.9585 41.9022 48.0409 42.0843 48.0409 42.3025V44.5994C48.0409 44.8546 48.1245 45.0587 48.2916 45.2118H46.7116L46.7112 45.2114ZM50.3003 45.2798C50.2262 45.3121 50.1681 45.3354 50.1264 45.3469C50.0846 45.3587 50.0395 45.3645 49.9932 45.3645C49.9606 45.3645 49.9246 45.3645 49.8852 45.3645C49.8459 45.3645 49.8168 45.3645 49.7983 45.3645C49.3041 45.3645 49.0176 45.1325 48.9387 44.6684V44.5223V42.107H48.5627C48.985 41.7916 49.3655 41.4678 49.7042 41.1384L50.0869 40.7544V41.6546H50.6925V42.107H50.0869V44.4805C50.0869 44.6754 50.2006 44.7728 50.428 44.7728C50.4791 44.7728 50.5325 44.7658 50.5881 44.7518L50.769 44.6892L50.8594 44.6406C50.8271 44.7773 50.7665 44.8981 50.6773 45.0025C50.5891 45.107 50.4639 45.1986 50.3003 45.2798ZM20.7605 41.9887L20.6038 41.0595V40.2278H21.2998V41.0595L21.1363 41.9887H20.7605Z" fill="#1C0000"/>
</svg>
