<svg width="17" height="17" viewBox="0 0 17 17" fill="none" xmlns="http://www.w3.org/2000/svg">
<path fill-rule="evenodd" clip-rule="evenodd" d="M11.8333 3.05599C11.8333 2.87199 11.6833 2.72266 11.5 2.72266H9.83333C7.992 2.72266 6.5 4.06599 6.5 5.72266V7.52266H4.83333C4.64933 7.52266 4.5 7.67199 4.5 7.85599V9.58932C4.5 9.77332 4.64933 9.92266 4.83333 9.92266H6.5V14.3893C6.5 14.5733 6.64933 14.7227 6.83333 14.7227H8.83333C9.01667 14.7227 9.16667 14.5733 9.16667 14.3893V9.92266H10.9127C11.0627 9.92266 11.194 9.82266 11.2347 9.67866L11.7153 7.94532C11.7747 7.73332 11.6147 7.52266 11.3947 7.52266H9.16667V5.72266C9.16667 5.39132 9.46467 5.12266 9.83333 5.12266H11.5C11.6833 5.12266 11.8333 4.97332 11.8333 4.78932V3.05599Z" fill="white"/>
<mask id="mask0_4_2160" style="mask-type:alpha" maskUnits="userSpaceOnUse" x="4" y="2" width="8" height="13">
<path fill-rule="evenodd" clip-rule="evenodd" d="M11.8333 3.05599C11.8333 2.87199 11.6833 2.72266 11.5 2.72266H9.83333C7.992 2.72266 6.5 4.06599 6.5 5.72266V7.52266H4.83333C4.64933 7.52266 4.5 7.67199 4.5 7.85599V9.58932C4.5 9.77332 4.64933 9.92266 4.83333 9.92266H6.5V14.3893C6.5 14.5733 6.64933 14.7227 6.83333 14.7227H8.83333C9.01667 14.7227 9.16667 14.5733 9.16667 14.3893V9.92266H10.9127C11.0627 9.92266 11.194 9.82266 11.2347 9.67866L11.7153 7.94532C11.7747 7.73332 11.6147 7.52266 11.3947 7.52266H9.16667V5.72266C9.16667 5.39132 9.46467 5.12266 9.83333 5.12266H11.5C11.6833 5.12266 11.8333 4.97332 11.8333 4.78932V3.05599Z" fill="white"/>
</mask>
<g mask="url(#mask0_4_2160)">
</g>
</svg>
