<svg width="25" height="26" viewBox="0 0 25 26" fill="none" xmlns="http://www.w3.org/2000/svg">
<rect y="0.222656" width="25" height="25" rx="12.5" fill="#E6340C"/>
<path fill-rule="evenodd" clip-rule="evenodd" d="M15.8333 7.05599C15.8333 6.87199 15.6833 6.72266 15.5 6.72266H13.8333C11.992 6.72266 10.5 8.06599 10.5 9.72266V11.5227H8.83333C8.64933 11.5227 8.5 11.672 8.5 11.856V13.5893C8.5 13.7733 8.64933 13.9227 8.83333 13.9227H10.5V18.3893C10.5 18.5733 10.6493 18.7227 10.8333 18.7227H12.8333C13.0167 18.7227 13.1667 18.5733 13.1667 18.3893V13.9227H14.9127C15.0627 13.9227 15.194 13.8227 15.2347 13.6787L15.7153 11.9453C15.7747 11.7333 15.6147 11.5227 15.3947 11.5227H13.1667V9.72266C13.1667 9.39132 13.4647 9.12266 13.8333 9.12266H15.5C15.6833 9.12266 15.8333 8.97332 15.8333 8.78932V7.05599Z" fill="white"/>
<mask id="mask0_4_5490" style="mask-type:alpha" maskUnits="userSpaceOnUse" x="8" y="6" width="8" height="13">
<path fill-rule="evenodd" clip-rule="evenodd" d="M15.8333 7.05599C15.8333 6.87199 15.6833 6.72266 15.5 6.72266H13.8333C11.992 6.72266 10.5 8.06599 10.5 9.72266V11.5227H8.83333C8.64933 11.5227 8.5 11.672 8.5 11.856V13.5893C8.5 13.7733 8.64933 13.9227 8.83333 13.9227H10.5V18.3893C10.5 18.5733 10.6493 18.7227 10.8333 18.7227H12.8333C13.0167 18.7227 13.1667 18.5733 13.1667 18.3893V13.9227H14.9127C15.0627 13.9227 15.194 13.8227 15.2347 13.6787L15.7153 11.9453C15.7747 11.7333 15.6147 11.5227 15.3947 11.5227H13.1667V9.72266C13.1667 9.39132 13.4647 9.12266 13.8333 9.12266H15.5C15.6833 9.12266 15.8333 8.97332 15.8333 8.78932V7.05599Z" fill="white"/>
</mask>
<g mask="url(#mask0_4_5490)">
</g>
</svg>
