<svg width="25" height="26" viewBox="0 0 25 26" fill="none" xmlns="http://www.w3.org/2000/svg">
<rect y="0.222656" width="25" height="25" rx="12.5" fill="#E6340C"/>
<g clip-path="url(#clip0_4_5474)">
<path fill-rule="evenodd" clip-rule="evenodd" d="M16.9 7.4082H8.1C7.495 7.4082 7 7.9032 7 8.5082V17.3082C7 17.9132 7.495 18.4082 8.1 18.4082H16.9C17.505 18.4082 18 17.9132 18 17.3082V8.5082C18 7.9032 17.505 7.4082 16.9 7.4082ZM12.5 10.7082C13.71 10.7082 14.7 11.6982 14.7 12.9082C14.7 14.1182 13.71 15.1082 12.5 15.1082C11.29 15.1082 10.3 14.1182 10.3 12.9082C10.3 11.6982 11.29 10.7082 12.5 10.7082ZM8.375 17.3082C8.21 17.3082 8.1 17.1982 8.1 17.0332V12.3582H9.255C9.2 12.5232 9.2 12.7432 9.2 12.9082C9.2 14.7232 10.685 16.2082 12.5 16.2082C14.315 16.2082 15.8 14.7232 15.8 12.9082C15.8 12.7432 15.8 12.5232 15.745 12.3582H16.9V17.0332C16.9 17.1982 16.79 17.3082 16.625 17.3082H8.375ZM16.9 9.8832C16.9 10.0482 16.79 10.1582 16.625 10.1582H15.525C15.36 10.1582 15.25 10.0482 15.25 9.8832V8.7832C15.25 8.6182 15.36 8.5082 15.525 8.5082H16.625C16.79 8.5082 16.9 8.6182 16.9 8.7832V9.8832Z" fill="white"/>
</g>
<defs>
<clipPath id="clip0_4_5474">
<rect width="12" height="12" fill="white" transform="translate(6 6.81543)"/>
</clipPath>
</defs>
</svg>
