<svg width="25" height="25" viewBox="0 0 25 25" fill="none" xmlns="http://www.w3.org/2000/svg">
<rect width="25" height="25" rx="12.5" fill="#73BF0A"/>
<path fill-rule="evenodd" clip-rule="evenodd" d="M17.7898 17.2012H6.89204C6.46313 17.2012 6.11362 16.8625 6.11362 16.4451V9.07392L11.8739 13.2698C12.0124 13.3711 12.1767 13.421 12.3409 13.421C12.5052 13.421 12.6694 13.3711 12.808 13.2698L18.5682 9.07392V16.4451C18.5682 16.8625 18.2187 17.2012 17.7898 17.2012ZM17.2706 8.12894L12.3409 11.72L7.41123 8.12894H17.2706ZM17.7899 6.6167H6.89212C5.60463 6.6167 4.55688 7.6343 4.55688 8.88477V16.445C4.55688 17.6954 5.60463 18.7131 6.89212 18.7131H17.7899C19.0774 18.7131 20.1251 17.6954 20.1251 16.445V8.88477C20.1251 7.6343 19.0774 6.6167 17.7899 6.6167Z" fill="white"/>
<mask id="mask0_4_2126" style="mask-type:luminance" maskUnits="userSpaceOnUse" x="4" y="6" width="17" height="13">
<path fill-rule="evenodd" clip-rule="evenodd" d="M17.7898 17.2012H6.89204C6.46313 17.2012 6.11362 16.8625 6.11362 16.4451V9.07392L11.8739 13.2698C12.0124 13.3711 12.1767 13.421 12.3409 13.421C12.5052 13.421 12.6694 13.3711 12.808 13.2698L18.5682 9.07392V16.4451C18.5682 16.8625 18.2187 17.2012 17.7898 17.2012ZM17.2706 8.12894L12.3409 11.72L7.41123 8.12894H17.2706ZM17.7899 6.6167H6.89212C5.60463 6.6167 4.55688 7.6343 4.55688 8.88477V16.445C4.55688 17.6954 5.60463 18.7131 6.89212 18.7131H17.7899C19.0774 18.7131 20.1251 17.6954 20.1251 16.445V8.88477C20.1251 7.6343 19.0774 6.6167 17.7899 6.6167Z" fill="white"/>
</mask>
<g mask="url(#mask0_4_2126)">
</g>
</svg>
