<svg width="25" height="25" viewBox="0 0 25 25" fill="none" xmlns="http://www.w3.org/2000/svg">
<rect width="25" height="25" rx="12.5" fill="#73BF0A"/>
<g clip-path="url(#clip0_4_2117)">
<path fill-rule="evenodd" clip-rule="evenodd" d="M8.6 11.2261C9.61111 13.2483 11.3444 14.9094 13.3667 15.9928L14.9556 14.4039C15.1722 14.1872 15.4611 14.115 15.6778 14.2594C16.4722 14.5483 17.3389 14.6928 18.2778 14.6928C18.7111 14.6928 19 14.9817 19 15.415V17.8706C19 18.3039 18.7111 18.5928 18.2778 18.5928C11.4889 18.5928 6 13.1039 6 6.315C6 5.88166 6.28889 5.59277 6.72222 5.59277H9.25C9.68333 5.59277 9.97222 5.88166 9.97222 6.315C9.97222 7.18166 10.1167 8.04833 10.4056 8.915C10.4778 9.13166 10.4056 9.42055 10.2611 9.63722L8.6 11.2261Z" fill="white"/>
</g>
<defs>
<clipPath id="clip0_4_2117">
<rect width="13" height="13" fill="white" transform="translate(6 5.59277)"/>
</clipPath>
</defs>
</svg>
