<svg width="25" height="26" viewBox="0 0 25 26" fill="none" xmlns="http://www.w3.org/2000/svg">
<rect y="0.222656" width="25" height="25" rx="12.5" fill="#E6340C"/>
<g clip-path="url(#clip0_4_5492)">
<path d="M19.1249 11.1497C17.8351 11.1528 16.5769 10.7506 15.5281 9.9998V15.2357C15.5277 16.2055 15.2313 17.152 14.6785 17.9488C14.1257 18.7455 13.3428 19.3545 12.4345 19.6943C11.5262 20.0341 10.5359 20.0885 9.59583 19.8502C8.65581 19.612 7.81092 19.0924 7.17415 18.361C6.53739 17.6296 6.13909 16.7212 6.03251 15.7573C5.92594 14.7935 6.11617 13.82 6.57777 12.9672C7.03938 12.1143 7.75035 11.4227 8.61562 10.9849C9.48089 10.547 10.4592 10.3837 11.4198 10.5169V13.1504C10.9802 13.0121 10.5082 13.0163 10.0712 13.1623C9.63412 13.3083 9.25438 13.5886 8.98617 13.9633C8.71797 14.338 8.57501 14.7879 8.57773 15.2487C8.58044 15.7094 8.72868 16.1576 9.00128 16.5291C9.27388 16.9006 9.6569 17.1765 10.0956 17.3173C10.5344 17.4581 11.0064 17.4568 11.4443 17.3133C11.8822 17.1699 12.2636 16.8918 12.534 16.5187C12.8044 16.1455 12.95 15.6965 12.95 15.2357V5H15.5281C15.5263 5.21772 15.5445 5.43514 15.5826 5.64951C15.6722 6.12807 15.8584 6.58332 16.13 6.98742C16.4016 7.39152 16.7527 7.73597 17.162 7.99971C17.7442 8.3847 18.4268 8.58989 19.1249 8.58975V11.1497Z" fill="white"/>
</g>
<defs>
<clipPath id="clip0_4_5492">
<rect width="13.125" height="15" fill="white" transform="translate(6 5)"/>
</clipPath>
</defs>
</svg>
