<svg width="25" height="26" viewBox="0 0 25 26" fill="none" xmlns="http://www.w3.org/2000/svg">
<rect y="0.222656" width="25" height="25" rx="12.5" fill="#73BF0A"/>
<g clip-path="url(#clip0_4_2152)">
<path d="M13.2812 8C15.3218 8 16.9906 8.03438 18.5343 8.10313H18.5562H18.5781C19.3 8.10313 19.8906 8.79062 19.8906 9.6375V9.67188L19.8937 9.70625C19.9656 10.7688 20 11.8719 20 12.9844C20.0031 14.0969 19.9656 15.2 19.8937 16.2625L19.8906 16.2969V16.3313C19.8906 16.7625 19.7437 17.1625 19.4718 17.4594C19.2281 17.7281 18.9093 17.8781 18.5781 17.8781H18.5531H18.5281C16.875 17.9563 15.1281 17.9969 13.3281 17.9969C13.2187 17.9969 13.1062 17.9969 12.9968 17.9969C12.8843 17.9969 12.7718 17.9969 12.6593 17.9969C10.8531 17.9969 9.10622 17.9563 7.46559 17.8813H7.44059H7.41559C7.08434 17.8813 6.76872 17.7312 6.52497 17.4625C6.25622 17.1656 6.10622 16.7656 6.10622 16.3344V16.3L6.10309 16.2656C6.02809 15.2 5.99372 14.0969 5.99997 12.9938V12.9906V12.9875C5.99684 11.8844 6.03122 10.7844 6.10309 9.71875L6.10622 9.68437V9.65C6.10622 8.8 6.69372 8.10938 7.41559 8.10938H7.43747H7.45934C9.00622 8.0375 10.675 8.00625 12.7156 8.00625H12.9968H13.2812M13.2812 7C13.1875 7 13.0937 7 13 7C12.9062 7 12.8125 7 12.7187 7C10.9187 7 9.14997 7.025 7.41872 7.10313C6.14372 7.10313 5.10934 8.2375 5.10934 9.64375C5.03122 10.7625 4.99684 11.875 4.99997 12.9906C4.99684 14.1062 5.02809 15.2188 5.10622 16.3344C5.10622 17.7406 6.14059 18.8844 7.41559 18.8844C9.12809 18.9656 10.875 19.0031 12.6593 19.0031C12.7718 19.0031 12.8875 19.0031 13 19.0031C13.1125 19.0031 13.225 19.0031 13.3343 19.0031C15.1187 19.0031 16.8656 18.9656 18.5812 18.8844C19.8593 18.8844 20.8937 17.7406 20.8937 16.3344C20.9687 15.2188 21.0031 14.1031 21 12.9875C21.0031 11.8719 20.9687 10.7594 20.8937 9.64062C20.8937 8.23438 19.8593 7.10625 18.5812 7.10625C16.85 7.025 15.0843 7 13.2812 7Z" fill="white"/>
<path d="M13.2812 8C15.3218 8 16.9906 8.03438 18.5343 8.10313H18.5562H18.5781C19.3 8.10313 19.8906 8.79062 19.8906 9.6375V9.67188L19.8937 9.70625C19.9656 10.7688 20 11.8719 20 12.9844C20.0031 14.0969 19.9656 15.2 19.8937 16.2625L19.8906 16.2969V16.3313C19.8906 16.7625 19.7437 17.1625 19.4718 17.4594C19.2281 17.7281 18.9093 17.8781 18.5781 17.8781H18.5531H18.5281C16.875 17.9563 15.1281 17.9969 13.3281 17.9969C13.2187 17.9969 13.1062 17.9969 12.9968 17.9969M12.9968 17.9969H13M12.9968 17.9969C12.8843 17.9969 12.7718 17.9969 12.6593 17.9969C10.8531 17.9969 9.10622 17.9563 7.46559 17.8813H7.44059H7.41559C7.08434 17.8813 6.76872 17.7312 6.52497 17.4625C6.25622 17.1656 6.10622 16.7656 6.10622 16.3344V16.3L6.10309 16.2656C6.02809 15.2 5.99372 14.0969 5.99997 12.9938V12.9906V12.9875C5.99684 11.8844 6.03122 10.7844 6.10309 9.71875L6.10622 9.68437V9.65C6.10622 8.8 6.69372 8.10938 7.41559 8.10938H7.43747H7.45934C9.00622 8.0375 10.675 8.00625 12.7156 8.00625H12.9968H13.2812M13.2812 7C13.1875 7 13.0937 7 13 7C12.9062 7 12.8125 7 12.7187 7C10.9187 7 9.14997 7.025 7.41872 7.10313C6.14372 7.10313 5.10934 8.2375 5.10934 9.64375C5.03122 10.7625 4.99684 11.875 4.99997 12.9906C4.99684 14.1062 5.02809 15.2188 5.10622 16.3344C5.10622 17.7406 6.14059 18.8844 7.41559 18.8844C9.12809 18.9656 10.875 19.0031 12.6593 19.0031C12.7718 19.0031 12.8875 19.0031 13 19.0031C13.1125 19.0031 13.225 19.0031 13.3343 19.0031C15.1187 19.0031 16.8656 18.9656 18.5812 18.8844C19.8593 18.8844 20.8937 17.7406 20.8937 16.3344C20.9687 15.2188 21.0031 14.1031 21 12.9875C21.0031 11.8719 20.9687 10.7594 20.8937 9.64062C20.8937 8.23438 19.8593 7.10625 18.5812 7.10625C16.85 7.025 15.0843 7 13.2812 7Z" stroke="white" stroke-width="0.3"/>
<path d="M11.4688 16.056V9.91846L16 12.9872L11.4688 16.056Z" fill="white"/>
</g>
<defs>
<clipPath id="clip0_4_2152">
<rect width="16" height="16" fill="white" transform="translate(5 5)"/>
</clipPath>
</defs>
</svg>
